<svg viewBox="0 0 132 34" xmlns="http://www.w3.org/2000/svg"><g fill="none"><path d="M102.227 29.61v-.729c.094-.347.222-.678.403-.991.917-1.58 1.829-3.165 2.742-4.748 3.322-5.757 6.644-11.514 9.968-17.27.329-.57.765-1.024 1.428-1.201h.576c.562.148.965.506 1.284.975l.201.326 12.404 21.486c.262.454.534.902.651 1.423v.729c-.217.755-.765 1.114-1.498 1.249-.246.045-.494.059-.744.059h-24.886c-.269 0-.537.004-.805-.027-.821-.094-1.47-.422-1.724-1.281zm14.814-17.137h-1.111c-.446 0-.694.241-.681.688.018.568.05 1.137.08 1.704l.22 4.151.161 3.292c.021.412.312.687.723.69.408.004.817.003 1.227 0 .441-.003.727-.285.744-.729l.014-.46.181-3.674.093-1.934c.049-1.027.103-2.054.142-3.081.016-.401-.237-.644-.641-.647h-1.152zm.005 15.945c1.22.004 2.052-.831 2.057-2.063.005-1.263-.84-2.141-2.058-2.139-1.192.002-2.063.878-2.067 2.078-.004 1.26.834 2.12 2.068 2.124z" id="Shape" fill="#1D71B8" opacity=".8"/><g id="Group" fill="#3C3C3B" fill-rule="nonzero"><path d="M8.076 14.998c-.116-.361-.24-.732-.373-1.113l-.397-1.137h-4.061l-.395 1.14c-.132.382-.255.751-.368 1.11h-2.43c.391-1.12.762-2.155 1.113-3.105.351-.949.694-1.846 1.03-2.686.336-.84.667-1.637.993-2.393.326-.754.664-1.492 1.016-2.212h2.218c.342.72.679 1.458 1.01 2.212.332.756.666 1.553 1.002 2.393.337.84.681 1.736 1.032 2.686.352.95.724 1.985 1.115 3.105h-2.505zm-1.018-13.125l-2.468 2.084-1.027-.914 2.122-2.43 1.373 1.26zm-1.793 5.084l-.229.617-.343.9-.431 1.125c-.159.409-.32.839-.484 1.288h2.973l-.462-1.292c-.149-.41-.291-.787-.425-1.127l-.354-.9-.245-.611zM16.521 9.088c-.2-.051-.435-.103-.705-.158-.27-.055-.56-.082-.869-.082-.141 0-.308.013-.503.037-.195.025-.343.053-.442.083v6.03h-2.235v-7.471c.4-.14.872-.271 1.418-.397.545-.124 1.152-.188 1.822-.188l.435.022.511.061.51.09c.17.035.314.078.435.127l-.377 1.846zM17.571 11.113c0-.701.107-1.313.322-1.838.216-.525.498-.963.848-1.313.351-.35.753-.615 1.208-.795.455-.18.922-.271 1.402-.271 1.12 0 2.005.343 2.655 1.028.649.685.975 1.691.975 3.021l-.015.428-.03.412h-5.07c.05.461.265.826.646 1.096.38.27.89.404 1.529.404.41 0 .813-.037 1.208-.111.395-.076.718-.168.968-.278l.3 1.815c-.12.06-.28.119-.48.18-.2.061-.422.112-.667.158-.245.045-.508.082-.788.111-.279.03-.56.045-.84.045-.71 0-1.327-.104-1.853-.314-.524-.21-.96-.498-1.305-.862-.345-.365-.6-.798-.765-1.298-.165-.5-.248-1.038-.248-1.618zm5.25-.855c-.01-.189-.042-.375-.098-.555-.055-.181-.14-.34-.255-.48-.115-.14-.26-.255-.435-.346-.175-.09-.393-.135-.652-.135-.25 0-.466.043-.646.128s-.33.198-.45.337c-.12.141-.212.303-.277.488-.065.185-.112.373-.143.563h2.956zM29.541 6.897c.66 0 1.21.075 1.65.226.439.149.792.365 1.058.645.265.28.452.62.563 1.02.109.4.165.846.165 1.336v4.649c-.32.07-.766.153-1.335.247-.57.096-1.261.143-2.07.143-.51 0-.973-.045-1.388-.135-.415-.09-.772-.237-1.072-.442-.3-.204-.53-.472-.69-.802-.16-.33-.239-.736-.239-1.216 0-.46.092-.85.277-1.17.185-.319.433-.575.742-.765.309-.19.665-.328 1.065-.412.399-.086.814-.128 1.245-.128.289 0 .547.013.772.037.225.025.407.058.547.098v-.21c0-.38-.115-.686-.345-.915-.23-.229-.63-.345-1.2-.345-.38 0-.755.027-1.125.082-.37.055-.689.133-.96.232l-.285-1.8.487-.128c.195-.045.408-.084.638-.119.23-.035.473-.065.728-.09.254-.025.512-.038.772-.038zm.181 6.541l.63-.016c.199-.01.359-.023.479-.045v-1.694l-.405-.06c-.18-.021-.345-.03-.494-.03-.21 0-.408.013-.593.037-.186.025-.348.073-.487.143-.141.07-.25.165-.33.285-.08.12-.12.271-.12.45 0 .35.117.592.353.727.233.135.557.203.967.203zM37.267 13.393c.409 0 .699-.04.869-.12.17-.079.256-.235.256-.465 0-.181-.11-.337-.33-.473-.221-.135-.556-.287-1.005-.458-.351-.129-.668-.264-.953-.404-.285-.14-.527-.308-.728-.502-.2-.195-.354-.428-.465-.698-.111-.27-.165-.595-.165-.976 0-.739.275-1.324.825-1.754.55-.43 1.305-.646 2.265-.646.48 0 .94.043 1.38.128.44.085.79.178 1.051.277l-.391 1.74c-.26-.09-.542-.17-.848-.24-.305-.07-.647-.105-1.027-.105-.7 0-1.05.195-1.05.586 0 .09.015.17.045.239.03.07.09.138.18.202.091.065.213.136.368.211.154.076.353.159.592.25.49.182.896.36 1.216.537.319.176.572.367.757.571.186.204.315.432.391.681.074.25.112.539.112.868 0 .778-.293 1.367-.878 1.767-.585.398-1.412.598-2.482.598-.7 0-1.282-.06-1.747-.18-.465-.119-.788-.22-.968-.3l.375-1.815c.38.15.77.268 1.17.354.399.084.794.127 1.185.127zM45.5 11.053c0-.57.093-1.107.277-1.613.186-.504.453-.944.803-1.319.35-.375.775-.673 1.275-.893.5-.22 1.069-.33 1.71-.33.42 0 .805.038 1.154.112.351.075.69.184 1.021.322l-.465 1.785c-.21-.08-.44-.149-.69-.209-.25-.061-.53-.091-.84-.091-.66 0-1.152.205-1.478.615-.326.41-.487.95-.487 1.62 0 .71.152 1.26.457 1.65.306.39.838.584 1.598.584.271 0 .561-.024.87-.074.31-.051.595-.131.855-.24l.314 1.83c-.26.109-.585.205-.975.285-.391.08-.82.119-1.29.119-.72 0-1.34-.107-1.86-.322-.52-.215-.947-.508-1.282-.877-.335-.37-.58-.808-.735-1.313-.155-.505-.232-1.051-.232-1.641zM58.13 9.088c-.2-.051-.435-.103-.705-.158-.27-.055-.56-.082-.869-.082-.141 0-.308.013-.503.037-.195.025-.343.053-.442.083v6.03h-2.235v-7.471c.4-.14.872-.271 1.418-.397.545-.124 1.152-.188 1.822-.188l.435.022.511.061.51.09c.17.035.314.078.435.127l-.377 1.846zM62.766 4.272l-2.468 2.085-1.027-.915 2.122-2.43 1.373 1.26zm-.826 10.726h-2.235v-7.891h2.235v7.891zM63.965 5.143l2.235-.359v2.324h2.685v1.86h-2.685v2.774c0 .471.083.846.247 1.125.165.28.498.42.998.42.24 0 .487-.021.742-.066s.487-.107.697-.188l.315 1.739c-.27.11-.57.205-.9.285-.329.08-.734.12-1.215.12-.609 0-1.115-.082-1.515-.248-.4-.164-.72-.395-.96-.689-.24-.294-.407-.652-.503-1.072-.095-.42-.143-.885-.143-1.396v-6.629h.002zM73.146 4.828c0 .41-.133.732-.397.967-.266.235-.578.353-.938.353s-.673-.117-.938-.353c-.266-.234-.397-.557-.397-.967 0-.41.132-.732.397-.969.265-.234.577-.352.938-.352.359 0 .672.117.938.352.264.237.397.559.397.969zm-.21 10.17h-2.236v-7.891h2.235v7.891h.001zM74.66 11.053c0-.57.093-1.107.277-1.613.186-.504.453-.944.803-1.319.35-.375.775-.673 1.275-.893.5-.22 1.069-.33 1.71-.33.42 0 .805.038 1.154.112.352.075.691.184 1.021.322l-.465 1.785c-.211-.08-.441-.149-.691-.209-.25-.061-.529-.091-.841-.091-.659 0-1.151.205-1.477.615-.326.41-.487.95-.487 1.62 0 .71.152 1.26.457 1.65.306.39.838.584 1.597.584.272 0 .562-.024.872-.074.309-.051.594-.131.855-.24l.314 1.83c-.26.109-.586.205-.975.285-.391.08-.82.119-1.291.119-.72 0-1.34-.107-1.86-.322-.52-.215-.947-.508-1.282-.877-.335-.37-.58-.808-.735-1.313-.155-.505-.231-1.051-.231-1.641zM84.997 6.897c.66 0 1.209.075 1.65.226.439.149.791.365 1.057.645.266.28.453.62.563 1.02.109.4.166.846.166 1.336v4.649c-.32.07-.766.153-1.336.247-.57.096-1.26.143-2.07.143-.51 0-.973-.045-1.387-.135-.416-.09-.773-.237-1.072-.442-.301-.204-.531-.472-.691-.802-.16-.33-.238-.736-.238-1.216 0-.46.092-.85.277-1.17.184-.319.432-.575.742-.765.309-.189.664-.328 1.064-.412.4-.086.814-.128 1.246-.128.289 0 .547.013.771.037.225.025.408.058.547.098v-.21c0-.38-.115-.686-.344-.915-.23-.229-.631-.345-1.201-.345-.379 0-.754.027-1.125.082-.369.055-.689.133-.959.232l-.285-1.8.486-.128c.195-.045.408-.084.639-.119.231-.035.473-.065.727-.09.255-.025.513-.038.773-.038zm.18 6.541l.631-.016c.199-.01.359-.023.479-.045v-1.694l-.404-.06c-.18-.021-.346-.03-.494-.03-.211 0-.408.013-.594.037-.186.025-.348.073-.486.143-.141.07-.25.165-.33.285-.08.12-.121.271-.121.45 0 .35.117.592.354.727.232.135.555.203.965.203zM92.722 13.393c.41 0 .699-.04.869-.12.17-.079.256-.235.256-.465 0-.181-.109-.337-.33-.473-.221-.135-.555-.287-1.004-.458-.352-.129-.668-.264-.953-.404-.285-.14-.527-.308-.729-.502-.199-.195-.354-.428-.465-.698-.109-.271-.164-.595-.164-.976 0-.739.275-1.324.824-1.754.551-.43 1.305-.646 2.266-.646.48 0 .939.043 1.379.128.441.085.791.178 1.051.277l-.391 1.74c-.26-.09-.541-.17-.848-.24-.305-.07-.646-.105-1.027-.105-.699 0-1.049.195-1.049.586 0 .09.014.17.045.239.029.07.09.138.18.202.09.065.213.136.367.211.154.076.354.159.592.25.49.182.896.36 1.217.537.318.176.572.367.756.571.186.204.316.432.391.681.074.25.113.539.113.868 0 .778-.293 1.367-.879 1.767-.584.398-1.412.598-2.482.598-.699 0-1.281-.06-1.746-.18-.465-.119-.789-.22-.969-.3l.375-1.815c.381.15.77.268 1.17.354.4.084.794.127 1.185.127z" id="Shape"/></g><g fill="#3C3C3B" fill-rule="nonzero"><path d="M35.34 31.156c.063-.264.138-.546.222-.846.084-.3.174-.605.271-.918.096-.313.196-.615.3-.912.104-.296.204-.568.3-.816h1.021c-.064.561-.137 1.119-.216 1.674-.08.557-.2 1.162-.36 1.818l-.528 2.209h-1.536l.526-2.209zm1.884-4.343c-.256 0-.462-.07-.617-.21-.156-.14-.234-.35-.234-.63 0-.336.105-.598.318-.786.212-.188.449-.282.714-.282.256 0 .462.072.618.217.155.144.233.355.233.635 0 .16-.03.307-.09.439-.06.131-.138.243-.234.336-.096.092-.206.161-.33.209-.124.048-.25.072-.378.072zM44.892 30.845c-.265.136-.601.26-1.008.372-.408.111-.904.168-1.488.168-.512 0-.968-.078-1.368-.234-.4-.156-.74-.382-1.02-.678-.28-.296-.494-.652-.643-1.068-.149-.416-.222-.884-.222-1.404 0-.672.111-1.325.336-1.961.224-.637.548-1.202.972-1.698.424-.496.94-.894 1.548-1.194.608-.3 1.296-.449 2.064-.449.504 0 .942.055 1.313.168.372.111.698.248.979.407l-.576 1.212c-.256-.152-.53-.27-.822-.354-.292-.084-.622-.127-.989-.127-.504 0-.956.113-1.356.337-.4.224-.742.519-1.026.882-.283.364-.5.777-.647 1.242-.148.464-.222.936-.222 1.416 0 .744.161 1.294.485 1.65.324.355.798.533 1.422.533.48 0 .889-.054 1.225-.162.336-.107.624-.218.863-.33l.18 1.272zM52.259 24.929l-.888 3.731c-.04.185-.07.369-.09.553-.021.184-.03.367-.03.552 0 .231.018.46.054.685.036.224.098.443.187.659l-1.296.192-.126-.295-.103-.329c-.2.16-.448.313-.744.462-.296.149-.64.222-1.032.222-.352 0-.651-.052-.899-.155-.248-.104-.45-.246-.606-.426-.155-.181-.268-.393-.336-.637-.067-.244-.102-.502-.102-.773 0-.353.048-.732.144-1.141l.792-3.3h1.452l-.783 3.264c-.102.417-.152.757-.152 1.021 0 .128.012.248.036.359.023.112.065.211.126.295.061.084.145.149.253.197.108.049.242.072.403.072.265 0 .501-.055.71-.162.209-.107.401-.254.578-.438.023-.344.08-.696.168-1.057l.833-3.552h1.451v.001zM54.083 31.205h-1.452l1.512-6.276h1.452l-1.512 6.276zm1.08-7.225c-.217 0-.404-.064-.564-.191-.16-.129-.24-.32-.24-.576 0-.297.103-.541.307-.732.203-.191.438-.288.701-.288.217 0 .406.066.57.198.164.132.246.326.246.582 0 .296-.104.538-.313.727-.208.187-.443.28-.707.28zM58.295 31.373c-.377 0-.7-.063-.973-.187-.271-.124-.494-.294-.666-.51-.172-.216-.298-.472-.378-.769-.08-.295-.12-.615-.12-.959 0-.537.095-1.055.283-1.555.188-.5.456-.939.805-1.32.349-.379.774-.684 1.279-.912.505-.228 1.077-.342 1.718-.342l.289.012.372.061.654-2.76 1.512-.24-1.644 6.805c-.04.184-.07.369-.09.557-.021.189-.03.367-.03.535 0 .215.02.432.06.647.04.215.104.44.192.672l-1.296.192c-.088-.168-.164-.372-.229-.612-.199.177-.443.335-.731.474-.287.141-.623.211-1.007.211zm2.312-5.305c-.151-.031-.336-.048-.551-.048-.368 0-.704.078-1.008.233-.304.156-.563.365-.779.625-.216.26-.381.558-.497.894-.116.336-.174.685-.174 1.044 0 .184.018.356.054.516.036.16.094.301.174.42.08.121.187.217.318.289.131.072.294.107.486.107.256 0 .481-.052.678-.156.196-.104.382-.248.558-.432.008-.168.026-.344.054-.527l.102-.541.585-2.424zM68.243 28.769c-.024.089-.049.231-.072.433-.024.199-.036.388-.036.563 0 .231.02.458.06.678.04.22.104.442.192.666l-1.296.192c-.096-.192-.172-.396-.228-.612-.2.177-.446.335-.738.474-.292.141-.622.211-.99.211-.376 0-.698-.063-.966-.187-.269-.124-.486-.296-.654-.517-.168-.219-.292-.477-.372-.773-.08-.296-.12-.615-.12-.96 0-.584.104-1.128.313-1.632.209-.504.498-.939.87-1.309.372-.367.813-.657 1.326-.869.512-.213 1.071-.318 1.68-.318.312 0 .626.025.941.078.316.052.635.15.954.294l-.864 3.588zm-.789-2.712c-.152-.031-.324-.048-.517-.048-.36 0-.693.077-.997.233-.305.156-.567.365-.787.625-.22.26-.391.558-.511.894-.12.336-.18.688-.18 1.056 0 .184.016.356.048.516.032.16.086.301.162.42.076.121.178.217.306.289.128.072.292.107.492.107.256 0 .482-.054.678-.162.196-.107.378-.254.546-.438.009-.208.026-.404.055-.588.027-.184.065-.368.114-.553l.591-2.351zM71.855 31.373c-.377 0-.7-.063-.973-.187-.271-.124-.494-.294-.666-.51-.172-.216-.298-.472-.378-.769-.08-.295-.12-.615-.12-.959 0-.537.095-1.055.283-1.555.188-.5.456-.939.805-1.32.349-.379.774-.684 1.279-.912.505-.228 1.077-.342 1.718-.342l.289.012.372.061.654-2.76 1.512-.24-1.644 6.805c-.04.184-.07.369-.09.557-.021.189-.03.367-.03.535 0 .215.02.432.06.647.04.215.104.44.192.672l-1.296.192c-.088-.168-.164-.372-.229-.612-.199.177-.443.335-.731.474-.287.141-.623.211-1.007.211zm2.313-5.305c-.151-.031-.336-.048-.551-.048-.368 0-.704.078-1.008.233-.304.156-.563.365-.779.625-.216.26-.381.558-.497.894-.116.336-.174.685-.174 1.044 0 .184.018.356.054.516.036.16.094.301.174.42.08.121.187.217.318.289.131.072.294.107.486.107.256 0 .481-.052.678-.156.196-.104.382-.248.558-.432.008-.168.026-.344.054-.527l.102-.541.585-2.424zM78.898 31.373c-.743 0-1.312-.221-1.703-.66-.391-.439-.588-1.021-.588-1.74 0-.464.072-.943.216-1.439.145-.496.364-.949.66-1.356.296-.408.668-.744 1.116-1.009.448-.264.976-.396 1.585-.396.744 0 1.311.218 1.703.654.392.436.588 1.014.588 1.733 0 .473-.07.957-.209 1.453-.141.496-.357.947-.648 1.355-.293.408-.664.744-1.117 1.008-.451.264-.984.397-1.603.397zm1.105-5.377c-.311 0-.59.09-.834.271-.245.181-.447.41-.611.69-.164.279-.29.586-.378.918-.089.332-.133.654-.133.966 0 .399.076.716.229.948.151.231.42.348.804.348.313 0 .59-.09.834-.27.244-.181.449-.408.613-.685.164-.277.289-.582.377-.918.088-.336.133-.655.133-.96 0-.4-.076-.719-.229-.954-.153-.235-.42-.354-.805-.354zM84.108 29.453c.256 0 .463.071.623.215.16.145.24.356.24.637 0 .16-.029.306-.09.438-.061.133-.139.244-.234.336-.095.092-.205.162-.33.211-.123.047-.25.071-.377.071-.258 0-.463-.069-.619-.21-.156-.14-.234-.35-.234-.63 0-.336.105-.598.313-.786.208-.188.443-.282.708-.282zm1.944-4.356c-.064.264-.139.546-.223.846-.084.3-.174.606-.27.918-.096.312-.195.616-.301.912-.104.296-.203.568-.299.815h-1.02c.063-.559.135-1.117.215-1.674.08-.555.201-1.162.361-1.817l.527-2.208h1.535l-.525 2.208z"/></g></g></svg>
