<svg viewBox="0 0 150 34" xmlns="http://www.w3.org/2000/svg"><g fill="none"><g id="Group"><path d="M121.186 17.975v-.61l.42-.684c1.58-2.551 3.643-4.611 6.273-6.068 3.283-1.816 6.773-2.468 10.463-1.657 3.611.793 6.502 2.79 8.934 5.513.842.938 1.563 1.963 2.258 3.008v.607c-1.428 2.207-3.17 4.119-5.324 5.64-2.334 1.649-4.896 2.7-7.76 2.95-1.861.162-3.686-.076-5.445-.681-4.261-1.459-7.478-4.208-9.819-8.018zm7.863-.298c-.002 1.31.4 2.48 1.209 3.492 1.408 1.759 3.262 2.544 5.508 2.441 1.291-.061 2.463-.465 3.484-1.244 1.742-1.322 2.605-3.065 2.404-5.276-.133-1.493-.803-2.735-1.91-3.722-2.137-1.904-5.193-2.229-7.666-.787-1.935 1.129-2.963 2.838-3.029 5.096z" id="Shape" fill="#3C3C3B"/><path d="M135.369 14.631c1.654.003 2.99 1.124 3.203 2.712.115.855-.145 1.634-.732 2.271-.889.963-2 1.295-3.264.99-1.221-.293-2.031-1.057-2.352-2.284-.389-1.517.605-3.099 2.225-3.567.313-.09.629-.137.92-.122z" id="Shape" fill="#1D71B8"/></g><g id="Group" fill="#3C3C3B" fill-rule="nonzero"><path d="M8.427 14.882c-.116-.361-.24-.732-.373-1.112l-.397-1.138h-4.061l-.395 1.141c-.132.381-.255.752-.368 1.109h-2.43c.391-1.119.762-2.154 1.113-3.104.351-.95.694-1.845 1.03-2.685.336-.84.667-1.638.993-2.393.326-.756.664-1.492 1.016-2.213h2.218c.342.721.679 1.457 1.01 2.213.332.755.666 1.553 1.002 2.393.337.84.681 1.734 1.032 2.685.351.951.724 1.985 1.115 3.104h-2.505zm-1.018-13.125l-2.468 2.086-1.027-.916 2.122-2.43 1.373 1.26zm-1.793 5.086l-.229.615-.343.901-.431 1.125c-.159.409-.32.839-.484 1.288h2.973l-.462-1.293c-.149-.41-.291-.785-.425-1.127l-.354-.9-.245-.609zM16.873 8.972l-.705-.156c-.27-.056-.56-.083-.869-.083-.141 0-.308.013-.503.038-.195.024-.343.052-.442.082v6.029h-2.235v-7.47c.4-.14.872-.272 1.418-.397.545-.125 1.152-.188 1.822-.188l.435.022.511.06.51.091c.17.035.314.077.435.128l-.377 1.844zM17.922 10.997c0-.699.107-1.313.322-1.838.216-.524.498-.962.848-1.313.351-.35.753-.614 1.208-.795.455-.18.922-.27 1.402-.27 1.12 0 2.005.343 2.655 1.027.649.686.975 1.693.975 3.023l-.015.427-.03.413h-5.07c.05.459.265.824.646 1.094.38.271.89.406 1.529.406.41 0 .813-.038 1.208-.113.395-.074.718-.167.968-.277l.3 1.814c-.12.061-.28.121-.48.181-.2.06-.422.112-.667.157-.245.045-.508.082-.788.113-.279.029-.56.045-.84.045-.71 0-1.327-.105-1.853-.315-.524-.21-.96-.497-1.305-.862s-.6-.797-.765-1.298c-.165-.499-.248-1.039-.248-1.619zm5.25-.855c-.01-.189-.042-.375-.098-.555-.055-.18-.14-.34-.255-.479-.115-.139-.26-.255-.435-.345-.175-.09-.393-.135-.652-.135-.25 0-.466.042-.646.127-.18.085-.33.197-.45.338-.12.14-.212.303-.277.486-.065.186-.112.373-.143.563h2.956zM29.892 6.782c.66 0 1.21.075 1.65.225.439.15.792.365 1.058.646.265.28.452.62.563 1.021.109.399.165.845.165 1.334v4.65c-.32.07-.766.152-1.335.248-.57.094-1.261.143-2.07.143-.51 0-.973-.045-1.388-.136-.415-.09-.772-.237-1.072-.442-.3-.205-.53-.473-.69-.803-.16-.33-.239-.734-.239-1.215 0-.459.092-.85.277-1.17.185-.32.433-.574.742-.766.31-.189.665-.326 1.065-.412.399-.084.814-.127 1.245-.127.289 0 .547.012.772.037.225.025.407.058.547.098v-.21c0-.38-.115-.685-.345-.915-.23-.23-.63-.346-1.2-.346-.38 0-.755.028-1.125.083-.37.056-.689.133-.96.233l-.285-1.801.487-.127c.195-.045.408-.086.638-.121.23-.034.473-.064.728-.09.255-.024.512-.037.772-.037zm.181 6.54l.63-.015c.199-.01.359-.025.479-.045v-1.695l-.405-.061c-.18-.02-.345-.029-.494-.029-.21 0-.408.012-.593.037-.186.025-.348.072-.487.143-.141.07-.25.165-.33.285-.08.12-.12.27-.12.449 0 .352.117.594.353.729.233.135.557.202.967.202zM37.618 13.277c.409 0 .699-.04.869-.12.17-.08.256-.234.256-.465 0-.18-.11-.338-.33-.473-.221-.135-.556-.287-1.005-.457-.351-.131-.668-.266-.953-.405-.285-.139-.527-.308-.728-.503-.201-.195-.354-.428-.465-.697-.111-.269-.165-.595-.165-.975 0-.74.275-1.325.825-1.756.55-.43 1.305-.645 2.265-.645.48 0 .94.043 1.38.127.44.086.79.178 1.051.278l-.391 1.739c-.26-.09-.542-.17-.848-.239-.305-.069-.647-.104-1.027-.104-.7 0-1.05.194-1.05.584 0 .09.015.17.045.24.03.07.09.138.18.203.091.064.213.135.368.211.154.075.353.158.592.249.49.182.896.36 1.216.536.319.178.572.367.757.572.186.205.315.432.391.681.074.249.112.539.112.868 0 .778-.293 1.367-.878 1.766s-1.412.6-2.482.6c-.7 0-1.282-.061-1.747-.181-.465-.12-.788-.22-.968-.3l.375-1.814c.38.149.77.268 1.17.352.4.086.794.128 1.185.128zM49.061 6.782c.66 0 1.21.075 1.65.225.439.15.792.365 1.058.646.265.28.452.62.563 1.021.109.399.165.845.165 1.334v4.65c-.32.07-.766.152-1.335.248-.57.094-1.261.143-2.07.143-.51 0-.973-.045-1.388-.136-.415-.09-.772-.237-1.072-.442-.3-.205-.53-.473-.69-.803-.16-.33-.239-.734-.239-1.215 0-.459.092-.85.277-1.17.185-.32.433-.574.742-.766.31-.189.665-.326 1.065-.412.399-.084.814-.127 1.245-.127.289 0 .547.012.772.037.225.025.407.058.547.098v-.21c0-.38-.115-.685-.345-.915-.23-.23-.63-.346-1.2-.346-.38 0-.755.028-1.125.083-.37.056-.689.133-.96.233l-.285-1.801.487-.127c.195-.045.408-.086.638-.121.23-.034.473-.064.728-.09.254-.024.512-.037.772-.037zm.181 6.54l.63-.015c.199-.01.359-.025.479-.045v-1.695l-.405-.061c-.18-.02-.345-.029-.494-.029-.21 0-.408.012-.593.037-.186.025-.348.072-.487.143-.141.07-.25.165-.33.285-.08.12-.12.27-.12.449 0 .352.117.594.353.729.233.135.557.202.967.202zM58.045 5.027l2.235-.36v2.325h2.685v1.86h-2.685v2.775c0 .47.083.845.247 1.125.165.279.498.42.998.42.24 0 .487-.023.742-.068.255-.045.487-.107.697-.188l.315 1.74c-.27.11-.57.205-.9.285-.329.08-.734.12-1.215.12-.609 0-1.115-.083-1.515-.247-.4-.166-.72-.396-.96-.69-.24-.294-.407-.653-.503-1.073-.095-.42-.143-.885-.143-1.395v-6.629h.002zM69.536 8.972l-.705-.156c-.27-.056-.56-.083-.869-.083-.141 0-.308.013-.503.038-.195.024-.343.052-.442.082v6.029h-2.235v-7.47c.4-.14.872-.272 1.418-.397.545-.125 1.152-.188 1.822-.188l.435.022.511.06.51.091c.17.035.314.077.435.128l-.377 1.844zM73.796 6.782c.66 0 1.21.075 1.65.225.439.15.792.365 1.058.646.265.28.452.62.563 1.021.109.399.165.845.165 1.334v4.65c-.32.07-.766.152-1.335.248-.57.094-1.261.143-2.07.143-.51 0-.973-.045-1.388-.136-.415-.09-.772-.237-1.072-.442-.3-.205-.53-.473-.69-.803-.16-.33-.239-.734-.239-1.215 0-.459.092-.85.277-1.17.185-.32.433-.574.742-.766.31-.189.665-.326 1.065-.412.399-.084.814-.127 1.245-.127.289 0 .547.012.772.037.225.025.407.058.547.098v-.21c0-.38-.115-.685-.345-.915-.23-.23-.63-.346-1.2-.346-.38 0-.755.028-1.125.083-.37.056-.689.133-.96.233l-.285-1.801.487-.127c.195-.045.408-.086.638-.121.23-.034.473-.064.728-.09.255-.024.513-.037.772-.037zm.181 6.54l.63-.015c.199-.01.359-.025.479-.045v-1.695l-.405-.061c-.18-.02-.345-.029-.494-.029-.21 0-.408.012-.593.037-.186.025-.348.072-.487.143-.141.07-.25.165-.33.285-.08.12-.12.27-.12.449 0 .352.117.594.353.729.234.135.557.202.967.202zM86.592 10.938c0 .63-.094 1.2-.277 1.71-.186.51-.453.945-.803 1.305-.35.36-.779.638-1.291.832-.51.195-1.09.293-1.738.293-.271 0-.553-.013-.848-.037-.295-.025-.586-.059-.871-.098-.285-.04-.557-.088-.816-.143-.262-.055-.49-.112-.691-.172v-11.025l2.236-.36v3.931c.25-.11.51-.195.779-.256.27-.06.561-.09.869-.09.561 0 1.057.098 1.486.293.429.195.789.473 1.08.832.289.36.51.793.66 1.298.149.504.225 1.066.225 1.687zm-2.279-.06c0-1.44-.531-2.16-1.592-2.16-.229 0-.457.029-.682.09-.225.06-.408.135-.547.225v4.064l.42.053c.17.016.354.023.555.023.609 0 1.07-.211 1.379-.631.31-.42.467-.975.467-1.664zM91.15 6.782c.66 0 1.211.075 1.65.225.439.15.793.365 1.059.646.264.28.451.62.563 1.021.109.399.164.845.164 1.334v4.65c-.32.07-.766.152-1.334.248-.57.094-1.262.143-2.07.143-.51 0-.973-.045-1.389-.136-.414-.09-.771-.237-1.072-.442-.299-.205-.529-.473-.689-.803-.16-.33-.24-.734-.24-1.215 0-.459.092-.85.277-1.17.185-.32.434-.574.742-.766.311-.189.666-.326 1.066-.412.398-.084.814-.127 1.244-.127.289 0 .547.012.773.037.225.025.406.058.547.098v-.21c0-.38-.115-.685-.346-.915-.231-.23-.629-.346-1.199-.346-.381 0-.756.028-1.125.083-.371.056-.689.133-.961.233l-.285-1.801.488-.127c.195-.045.408-.086.637-.121.23-.034.473-.064.729-.09.254-.024.512-.037.771-.037zm.182 6.54l.629-.015c.199-.01.359-.025.48-.045v-1.695l-.406-.061c-.18-.02-.344-.029-.494-.029-.209 0-.408.012-.592.037-.186.025-.348.072-.488.143s-.25.165-.33.285c-.08.12-.119.27-.119.449 0 .352.117.594.352.729s.558.202.968.202zM95.877 17.657c-.141 0-.348-.016-.623-.045-.275-.029-.533-.085-.773-.165l.301-1.815c.15.051.287.086.412.105.125.019.283.029.473.029.35 0 .596-.104.734-.314.141-.21.211-.516.211-.915v-7.545h2.234v7.604c0 1.041-.254 1.811-.766 2.311-.51.5-1.244.75-2.203.75zm3.18-12.945c0 .41-.133.732-.398.968s-.578.353-.938.353-.672-.117-.938-.353c-.266-.236-.396-.558-.396-.968 0-.41.131-.732.396-.967.266-.235.578-.354.938-.354s.672.118.938.354c.265.234.398.557.398.967zM103.781 6.782c.66 0 1.209.075 1.65.225.439.15.791.365 1.057.646.266.281.453.62.563 1.021.109.399.166.845.166 1.334v4.65c-.32.07-.766.152-1.336.248-.57.094-1.26.143-2.07.143-.51 0-.973-.045-1.387-.136-.416-.09-.773-.237-1.072-.442-.301-.205-.531-.473-.691-.803-.16-.33-.238-.734-.238-1.215 0-.459.092-.85.277-1.17.184-.32.432-.574.742-.766.309-.189.664-.326 1.064-.412.4-.084.814-.127 1.246-.127.289 0 .547.012.771.037.224.025.408.058.547.098v-.21c0-.38-.115-.685-.344-.915-.23-.23-.631-.346-1.201-.346-.379 0-.754.028-1.125.083-.369.056-.689.133-.959.233l-.285-1.801.486-.127c.195-.045.408-.086.639-.121.23-.034.473-.064.727-.09.256-.024.513-.037.773-.037zm.18 6.54l.631-.015c.199-.01.359-.025.479-.045v-1.695l-.404-.061c-.18-.02-.346-.029-.494-.029-.211 0-.408.012-.594.037-.186.025-.348.072-.486.143-.141.07-.25.165-.33.285-.08.12-.121.27-.121.449 0 .352.117.594.354.729.233.135.555.202.965.202zM113.996 8.972l-.705-.156c-.27-.056-.561-.083-.869-.083-.141 0-.309.013-.504.038-.195.024-.342.052-.441.082v6.029h-2.236v-7.47c.4-.14.873-.272 1.418-.397.545-.125 1.152-.188 1.822-.188l.436.022.51.06.51.091c.17.035.314.077.436.128l-.377 1.844z" id="Shape"/></g><g fill="#3C3C3B" fill-rule="nonzero"><path d="M9.823 30.837c.063-.264.138-.547.222-.846.084-.301.174-.606.271-.918.096-.313.196-.616.3-.912.104-.297.204-.568.3-.816h1.021c-.064.561-.137 1.118-.216 1.674-.08.557-.2 1.162-.36 1.818l-.528 2.208h-1.536l.526-2.208zm1.884-4.344c-.256 0-.462-.07-.617-.211-.156-.139-.234-.35-.234-.629 0-.336.105-.599.318-.787.212-.188.449-.281.714-.281.256 0 .462.072.618.216.155.144.233.356.233.636 0 .16-.03.307-.09.438s-.138.243-.234.336c-.096.092-.206.161-.33.21-.125.048-.251.072-.378.072zM16.806 31.065c-.464 0-.89-.074-1.278-.223-.388-.148-.724-.361-1.008-.643-.284-.279-.504-.627-.66-1.043-.155-.416-.233-.893-.233-1.428 0-.641.104-1.281.312-1.921.208-.64.515-1.214.918-1.722.404-.508.902-.92 1.494-1.236.592-.316 1.272-.474 2.04-.474.464 0 .893.073 1.284.222.391.149.728.362 1.008.643.28.279.498.627.654 1.043.156.416.234.893.234 1.429 0 .64-.104 1.28-.313 1.92-.209.64-.512 1.214-.912 1.722s-.898.92-1.494 1.236c-.596.316-1.277.475-2.046.475zm1.428-7.38c-.456 0-.869.114-1.241.342-.372.229-.69.526-.954.895-.265.368-.471.785-.618 1.254-.148.468-.222.941-.222 1.422 0 .656.14 1.18.42 1.572.279.393.728.588 1.344.588.456 0 .872-.114 1.248-.342.376-.229.696-.526.96-.895.264-.367.47-.785.618-1.254.147-.468.222-.941.222-1.422 0-.656-.142-1.18-.426-1.572-.285-.392-.735-.588-1.351-.588zM23.514 30.657c-.104.432-.226.804-.365 1.115-.141.313-.313.568-.517.768-.204.201-.443.349-.72.445-.276.096-.606.144-.99.144-.184 0-.374-.022-.569-.065-.196-.045-.362-.099-.498-.162l.359-1.164.329.107c.124.031.258.048.401.048.326 0 .573-.114.741-.342.167-.228.295-.534.382-.918l1.446-6.024h1.452l-1.451 6.048zm1.032-6.996c-.216 0-.404-.064-.563-.192-.16-.128-.24-.319-.24-.576 0-.296.102-.54.306-.731.204-.192.438-.289.702-.289.216 0 .406.066.57.199.164.131.246.326.246.582 0 .295-.104.537-.313.726-.209.189-.443.281-.708.281zM27.846 31.053c-.744 0-1.313-.22-1.704-.66-.392-.439-.588-1.021-.588-1.739 0-.465.072-.944.216-1.44.145-.496.364-.948.66-1.356.296-.408.668-.744 1.116-1.008.447-.264.976-.396 1.584-.396.744 0 1.312.219 1.704.654.392.437.588 1.014.588 1.734 0 .473-.07.956-.21 1.452-.141.496-.356.948-.648 1.356-.292.407-.664.743-1.116 1.008-.452.263-.986.395-1.602.395zm1.104-5.376c-.312 0-.59.09-.834.27-.244.181-.447.41-.611.69-.164.28-.29.586-.378.918-.089.332-.133.654-.133.966 0 .4.076.717.229.948.151.231.42.349.804.349.313 0 .59-.091.834-.271.244-.181.448-.408.612-.685.164-.275.29-.582.378-.918.088-.336.132-.655.132-.959 0-.4-.076-.719-.228-.955-.153-.235-.421-.353-.805-.353zM33.054 29.133c.256 0 .464.071.624.216.16.145.24.355.24.637 0 .16-.03.305-.091.438-.06.132-.138.244-.233.336-.097.092-.206.162-.33.21-.124.048-.25.071-.378.071-.257 0-.462-.069-.618-.209-.156-.141-.234-.35-.234-.631 0-.336.104-.598.313-.785.209-.187.443-.283.707-.283zm1.944-4.357c-.063.264-.138.547-.222.846-.084.301-.174.607-.27.918-.097.313-.196.617-.301.912-.104.297-.203.568-.3.816h-1.02c.063-.56.136-1.117.216-1.674.08-.556.2-1.162.36-1.818l.527-2.207h1.536l-.526 2.207zM38.213 30.885l1.992-8.315h5.16l-.3 1.26h-3.664l-.495 2.088h3.247l-.3 1.236h-3.229l-.6 2.472h3.936l-.3 1.26h-5.447zM46.831 29.864c.384 0 .688-.062.911-.186.225-.124.336-.314.336-.57 0-.207-.071-.373-.216-.498-.144-.123-.396-.27-.756-.438-.191-.088-.37-.18-.534-.275-.164-.097-.306-.209-.426-.337-.12-.128-.216-.278-.288-.45-.072-.172-.107-.377-.107-.617 0-.625.228-1.12.684-1.488.456-.368 1.116-.553 1.98-.553.399 0 .758.043 1.073.127.316.084.554.17.714.258l-.516 1.128c-.136-.08-.332-.157-.588-.233-.256-.076-.524-.115-.804-.115-.137 0-.271.013-.402.037-.132.023-.25.063-.354.119-.104.057-.19.135-.259.234-.067.1-.102.223-.102.365 0 .186.074.335.222.451.148.115.362.238.643.365.264.12.487.236.672.348.184.113.336.238.456.379.12.14.208.296.264.468.056.172.084.378.084.618 0 .296-.06.57-.18.822s-.294.467-.522.647c-.228.181-.51.322-.846.427-.336.104-.72.155-1.152.155-.296 0-.562-.021-.798-.06-.236-.041-.442-.086-.618-.139-.176-.052-.324-.105-.443-.162l-.276-.144.516-1.14.246.125.372.15c.14.049.296.09.468.126.172.036.353.056.546.056zM52.014 22.952l1.512-.239-.458 1.896h2.054l-.288 1.2h-2.056l-.601 2.484-.08.438-.023.317.03.282c.02.092.06.172.12.24.06.067.147.123.264.168.116.043.274.065.475.065.216 0 .424-.028.624-.084.199-.056.375-.116.527-.181l.108 1.164c-.185.08-.416.156-.696.229-.28.073-.608.107-.984.107-.688 0-1.18-.149-1.476-.449-.296-.301-.444-.71-.444-1.23 0-.191.015-.39.042-.594.028-.203.07-.422.126-.654l1.224-5.159zM60.57 28.448c-.024.089-.049.232-.072.433-.024.2-.036.388-.036.563 0 .232.02.459.06.678.04.221.104.443.192.666l-1.296.193c-.096-.193-.172-.396-.228-.613-.2.177-.446.335-.738.475-.292.14-.622.21-.99.21-.376 0-.698-.062-.966-.187-.269-.123-.486-.295-.654-.516-.168-.22-.292-.478-.372-.773-.08-.297-.12-.616-.12-.961 0-.584.104-1.127.313-1.631.209-.504.498-.94.87-1.309.372-.367.813-.658 1.326-.87.512-.212 1.071-.317 1.68-.317.312 0 .626.025.941.078.316.051.635.149.954.293l-.864 3.588zm-.789-2.711c-.152-.032-.324-.049-.517-.049-.36 0-.693.078-.997.234-.305.156-.567.364-.787.624-.22.26-.391.558-.511.894-.12.336-.18.688-.18 1.057 0 .184.016.355.048.516.032.161.086.301.162.42.076.12.178.217.306.288.128.072.292.108.492.108.256 0 .482-.055.678-.162.196-.108.378-.254.546-.438.009-.209.026-.404.055-.589.027-.184.065-.368.114-.552l.591-2.351zM66.425 25.893c-.16-.056-.333-.1-.518-.132-.185-.031-.401-.048-.649-.048-.137 0-.281.01-.434.03-.152.02-.281.046-.386.078l-1.205 5.063h-1.452l1.44-5.987c.336-.113.699-.211 1.092-.295.392-.084.815-.126 1.271-.126l.324.019.354.041.323.061.259.084-.419 1.212zM74.898 28.448c-.024.089-.049.232-.072.433-.024.2-.036.388-.036.563 0 .232.02.459.06.678.04.221.104.443.192.666l-1.296.193c-.096-.193-.172-.396-.228-.613-.2.177-.446.335-.738.475-.292.14-.622.21-.99.21-.376 0-.698-.062-.966-.187-.269-.123-.486-.295-.654-.516-.168-.22-.292-.478-.372-.773-.08-.297-.12-.616-.12-.961 0-.584.104-1.127.313-1.631.209-.504.498-.94.87-1.309.372-.367.813-.658 1.326-.87.512-.212 1.071-.317 1.68-.317.312 0 .626.025.941.078.316.051.635.149.954.293l-.864 3.588zm-.789-2.711c-.152-.032-.324-.049-.517-.049-.36 0-.693.078-.997.234-.305.156-.567.364-.787.624-.22.26-.391.558-.511.894-.12.336-.18.688-.18 1.057 0 .184.016.355.048.516.032.161.086.301.162.42.076.12.178.217.306.288.128.072.292.108.492.108.256 0 .482-.055.678-.162.196-.108.378-.254.546-.438.009-.209.026-.404.055-.589.027-.184.065-.368.114-.552l.591-2.351zM77.85 22.952l1.511-.239-.458 1.896h2.053l-.287 1.2h-2.056l-.601 2.484-.08.438-.023.317.03.282c.02.092.06.172.12.24.06.067.147.123.264.168.116.043.274.065.475.065.216 0 .424-.028.624-.084.2-.056.375-.116.527-.181l.109 1.164c-.186.08-.416.156-.697.229-.28.072-.608.107-.984.107-.688 0-1.18-.149-1.476-.449-.296-.301-.444-.71-.444-1.23 0-.191.015-.39.042-.594.028-.203.07-.422.126-.654l1.225-5.159zM81.209 28.616c0-.535.086-1.053.258-1.553.172-.5.42-.945.744-1.332.324-.389.715-.699 1.17-.931.457-.231.969-.349 1.537-.349.607 0 1.08.156 1.416.469.336.313.504.712.504 1.199 0 .505-.125.912-.373 1.225-.248.313-.57.557-.965.732-.396.176-.844.296-1.344.359-.5.064-1.008.104-1.52.12l-.012.048v.12c0 .728.461 1.093 1.381 1.093.543 0 1.088-.113 1.631-.336l.121 1.176c-.193.088-.465.176-.816.264-.351.088-.752.132-1.199.132-.449 0-.832-.063-1.152-.192-.32-.127-.582-.304-.787-.527-.203-.225-.354-.482-.449-.774-.095-.292-.145-.607-.145-.943zm3.492-2.975c-.24 0-.467.048-.684.144-.217.097-.408.229-.576.396-.168.167-.314.366-.438.594-.125.229-.215.475-.27.738.959-.031 1.656-.148 2.094-.348.436-.2.652-.5.652-.9 0-.16-.057-.304-.174-.432-.114-.128-.315-.192-.604-.192zM88.639 24.872c.318-.096.686-.186 1.098-.27.412-.084.861-.126 1.35-.126.736 0 1.275.181 1.619.54.344.36.518.844.518 1.452 0 .168-.016.347-.043.534l-.102.582-.793 3.3h-1.449l.742-3.144.119-.541c.041-.184.064-.359.072-.527.008-.279-.059-.512-.197-.696-.141-.184-.414-.276-.822-.276-.344 0-.641.037-.889.108l-1.203 5.076h-1.461l1.441-6.012zM95.693 22.952l1.512-.239-.457 1.896h2.053l-.287 1.2h-2.057l-.6 2.484-.08.438-.023.317.029.282c.019.092.061.172.121.24.059.067.146.123.264.168.115.043.273.065.475.065.215 0 .424-.028.623-.084.199-.056.375-.116.527-.181l.109 1.164c-.186.08-.416.156-.697.229-.279.072-.607.107-.984.107-.688 0-1.18-.149-1.475-.449-.297-.301-.445-.71-.445-1.23 0-.191.016-.39.043-.594.027-.203.07-.422.125-.654l1.224-5.159zM101.346 31.053c-.744 0-1.313-.22-1.705-.66-.391-.439-.588-1.021-.588-1.739 0-.465.072-.944.217-1.44.145-.496.363-.948.66-1.356.295-.408.668-.744 1.115-1.008.447-.264.977-.396 1.584-.396.744 0 1.313.219 1.705.654.391.437.588 1.014.588 1.734 0 .473-.07.956-.211 1.452s-.355.948-.648 1.356c-.291.407-.664.743-1.115 1.008-.454.263-.987.395-1.602.395zm1.103-5.376c-.313 0-.59.09-.834.27-.244.181-.447.41-.611.69-.164.28-.291.586-.379.918-.088.332-.133.654-.133.966 0 .4.076.717.229.948.153.231.42.349.805.349.313 0 .59-.091.834-.271.244-.181.447-.408.611-.685.164-.275.291-.582.379-.918.088-.336.131-.655.131-.959 0-.4-.076-.719-.227-.955-.152-.235-.42-.353-.805-.353zM107.334 29.864c.383 0 .688-.062.91-.186.225-.124.336-.314.336-.57 0-.207-.07-.373-.215-.498-.145-.123-.396-.27-.756-.438-.191-.088-.371-.18-.535-.275-.164-.097-.305-.209-.426-.337-.119-.128-.215-.278-.287-.45-.072-.172-.107-.377-.107-.617 0-.625.227-1.12.684-1.488.455-.368 1.115-.553 1.98-.553.398 0 .758.043 1.072.127.316.084.555.17.715.258l-.516 1.128c-.137-.08-.332-.157-.588-.233-.256-.076-.525-.115-.805-.115-.137 0-.27.013-.402.037-.131.023-.25.063-.354.119-.104.057-.189.135-.258.234s-.102.223-.102.365c0 .186.074.335.221.451.148.115.363.238.643.365.264.12.488.236.672.348.184.113.336.238.457.379.119.14.207.296.264.468.055.172.084.378.084.618 0 .296-.061.57-.18.822-.121.252-.295.467-.523.647-.227.181-.51.322-.846.427-.336.104-.719.155-1.152.155-.295 0-.561-.021-.797-.06-.236-.041-.443-.086-.619-.139-.176-.052-.324-.105-.443-.162l-.275-.144.516-1.14.246.125.371.15c.141.049.297.09.469.126.172.036.353.056.546.056z"/></g></g></svg>
