<svg viewBox="0 0 142 31" xmlns="http://www.w3.org/2000/svg"><g fill="none"><g id="Group"><path d="M126.317 3.919l.867-1.49 2.158 1.245-.834 1.448 1.133 1.145 1.438-.826 1.248 2.154-.369.219-1.031.592c-.072.041-.104.075-.076.167l.408 1.426h1.686v2.483h-1.723l-.186.776c-.059.213-.125.423-.203.628-.041.103-.012.145.076.193l1.273.731.104.071-1.244 2.152-1.482-.854-.896.859c-.25.235-.25.232-.076.53l.691 1.2-2.16 1.247-.873-1.505c-.422.107-.824.216-1.23.312-.287.066-.289.059-.287.349v1.449h-2.496v-1.742l-1.508-.419-.883 1.52-2.16-1.247.859-1.487-.66-.746-.262-.299c-.082-.118-.154-.116-.271-.046-.457.273-.92.538-1.398.815l-1.25-2.159 1.561-.906-.139-.467c-.074-.293-.15-.585-.209-.882-.021-.112-.059-.144-.168-.143l-1.471.002h-.186v-2.497h1.781l.404-1.496-1.537-.889 1.248-2.161.85.49.602.348c.086.052.137.039.209-.035.293-.305.592-.604.898-.896.076-.073.082-.124.033-.209l-.744-1.287-.082-.148 2.158-1.246.885 1.526 1.516-.405v-1.734h2.482v1.733l1.526.411zm-2.767 11.494c2.314.004 4.213-1.881 4.219-4.189.006-2.333-1.877-4.229-4.207-4.236-2.326-.007-4.219 1.876-4.223 4.201-.004 2.341 1.867 4.22 4.211 4.224z" id="Shape" fill="#97B5AE"/><path d="M137.005 15.951c0 .362.021.716-.006 1.065-.027.344.016.596.424.668.184.032.352.147.543.232l1.086-1.106 1.98 2.004c-.287.289-.592.605-.91.909-.127.121-.178.218-.082.39.107.19.18.401.252.609.035.104.074.147.191.146.414-.008.826-.004 1.24-.004h.191v2.802h-.674l-.76-.001c-.094-.002-.146.019-.182.117-.088.243-.186.482-.291.718-.041.093-.041.151.037.227.344.331.684.669 1.023 1.003l-2 1.986-.52-.515-.5-.506c-.064-.068-.113-.071-.197-.031-.234.108-.471.212-.715.3-.1.036-.137.078-.135.185l.002 1.239v.193h-2.799v-.693l.002-.743c.004-.099-.031-.141-.125-.176-.248-.093-.488-.199-.729-.308-.082-.036-.131-.039-.199.032-.305.317-.619.626-.93.938l-.098.083-1.984-1.991.697-.676.258-.255c.146-.11.15-.219.066-.374-.098-.178-.168-.371-.232-.563-.047-.136-.104-.199-.266-.193-.451.015-.902.005-1.367.005v-2.802c.451 0 .896-.01 1.342.006.184.006.258-.057.307-.228.051-.184.129-.364.221-.531.082-.15.064-.243-.063-.361-.328-.303-.637-.623-.945-.929l1.982-1.986 1.053 1.086c.34-.134.639-.246.93-.372.041-.018.076-.1.076-.152.006-.418.004-.837.004-1.256v-.189l2.802-.002zm-1.401 8.095c.979.001 1.785-.792 1.783-1.765 0-.962-.762-1.825-1.875-1.793-.92.027-1.684.806-1.697 1.746-.015 1.004.791 1.81 1.789 1.812z" id="Shape" fill="#455AA5"/><path d="M125.983 21.642l-.002.842c-.004.1.027.148.123.18l.383.149c.049.015.129.002.162-.03.209-.196.408-.4.607-.599l1.229 1.232c-.188.188-.383.396-.59.589-.078.073-.076.126-.033.212.061.117.113.239.152.365.027.091.072.116.164.114l.85-.001v1.741h-.955l-.23.54.049.133.619.584-1.258 1.252-.568-.569c-.078-.083-.145-.099-.242-.043-.086.049-.176.102-.27.119-.172.029-.199.126-.193.277.012.252.004.505.004.769h-1.752c0-.263-.01-.525.004-.787.008-.147-.039-.219-.182-.254-.105-.027-.209-.075-.303-.131-.098-.061-.156-.021-.227.046l-.584.552-1.209-1.235.566-.543c.086-.076.1-.146.043-.241l-.082-.162c-.125-.301-.125-.301-.459-.301l-.578-.002-.045-.013v-1.732c.252 0 .51-.008.766.003.15.006.248-.019.279-.19.018-.104.078-.205.131-.301.045-.084.027-.136-.039-.2l-.586-.595 1.227-1.25.635.708.521-.209c.098-.032.125-.083.123-.18l-.002-.839h1.752zm-.865 2.817c-.617-.005-1.121.489-1.123 1.1-.004.613.492 1.114 1.105 1.117.611.002 1.113-.497 1.117-1.108.003-.599-.499-1.105-1.099-1.109z" id="Shape" fill="#5491CD"/><path d="M126.159 11.241c.006 1.437-1.16 2.608-2.596 2.611-1.484.004-2.656-1.174-2.621-2.684.031-1.4 1.146-2.465 2.455-2.533 1.625-.083 2.772 1.205 2.762 2.606z" id="Shape" fill="#97B5AE"/></g><g id="Group" fill="#3C3C3B" fill-rule="nonzero"><path id="Shape" d="M8.552 12.108v-10.396h7.02v1.965h-4.68v2.04h4.155v1.92h-4.155v2.506h5.025v1.965h-7.365zM17.492 4.488c.38-.11.87-.213 1.47-.308.601-.095 1.23-.143 1.891-.143.67 0 1.228.088 1.672.263.445.175.798.423 1.058.742.261.32.445.7.556 1.141.109.439.165.93.165 1.47v4.455h-2.235v-4.186c0-.72-.095-1.229-.285-1.529-.189-.301-.545-.45-1.064-.45l-.511.022-.479.053v6.09h-2.235v-7.62h-.003zM36.886 11.854c-.2.06-.43.117-.689.172-.261.056-.533.103-.817.143-.285.04-.575.072-.87.098-.295.024-.578.037-.848.037-.65 0-1.23-.095-1.74-.284-.51-.19-.94-.463-1.29-.818-.35-.354-.617-.784-.803-1.289-.185-.505-.277-1.073-.277-1.703 0-.64.08-1.217.24-1.732.16-.515.39-.952.69-1.313.3-.36.667-.635 1.102-.825.436-.189.933-.285 1.493-.285.31 0 .587.03.832.091.245.06.493.145.743.255v-3.57l2.234-.36v11.383zm-5.054-3.75c0 .689.155 1.245.465 1.665.31.42.77.63 1.38.63.2 0 .385-.008.556-.022l.42-.053v-4.065c-.141-.09-.323-.165-.548-.225-.225-.06-.452-.09-.683-.09-1.06-.001-1.59.719-1.59 2.16zM38.611 8.224c0-.7.107-1.313.322-1.838.216-.525.498-.963.848-1.313.351-.35.753-.615 1.208-.795.455-.18.922-.271 1.402-.271 1.12 0 2.005.343 2.655 1.028.649.685.975 1.692.975 3.022l-.015.427-.03.413h-5.07c.05.46.265.825.646 1.095.38.27.89.405 1.529.405.41 0 .813-.038 1.208-.112.395-.075.718-.168.968-.278l.3 1.815c-.12.06-.28.12-.48.18-.2.061-.422.112-.667.158-.245.045-.508.082-.788.112-.279.029-.56.045-.84.045-.71 0-1.327-.105-1.853-.315-.524-.21-.96-.497-1.305-.862s-.6-.797-.765-1.298c-.165-.499-.248-1.038-.248-1.618zm5.25-.856c-.01-.189-.042-.375-.098-.555-.055-.181-.14-.34-.255-.48-.115-.14-.26-.255-.435-.345-.175-.09-.393-.135-.652-.135-.25 0-.466.042-.646.127-.18.085-.33.198-.45.338s-.212.303-.277.487c-.065.186-.112.373-.143.563h2.956zM50.011 10.503c.409 0 .699-.04.869-.12.17-.079.256-.234.256-.465 0-.18-.11-.337-.33-.473-.221-.135-.556-.287-1.005-.457-.351-.13-.668-.265-.953-.405-.285-.14-.527-.308-.728-.502-.2-.195-.354-.428-.465-.698-.11-.27-.165-.595-.165-.975 0-.74.275-1.325.825-1.755.55-.43 1.305-.646 2.265-.646.48 0 .94.043 1.38.128.44.085.79.178 1.051.277l-.391 1.74c-.26-.09-.542-.17-.848-.24-.305-.069-.647-.104-1.027-.104-.7 0-1.05.194-1.05.585 0 .09.015.17.045.239.03.07.09.138.18.203.091.064.213.135.368.211.154.075.353.158.592.249.49.182.896.36 1.216.537.319.177.572.367.757.571.186.205.315.432.391.681.074.25.112.539.112.868 0 .778-.293 1.367-.878 1.767-.585.398-1.412.599-2.482.599-.7 0-1.282-.061-1.747-.181-.465-.119-.788-.22-.968-.3l.375-1.814c.38.149.77.268 1.17.353.4.085.795.127 1.185.127zM57.855 4.008c.66 0 1.21.075 1.65.226.439.149.792.365 1.058.645.265.28.452.62.563 1.021.109.399.165.845.165 1.335v4.649c-.32.07-.766.153-1.335.248-.57.095-1.261.143-2.07.143-.51 0-.973-.045-1.388-.136-.415-.09-.772-.237-1.072-.442-.3-.204-.53-.472-.69-.802-.16-.33-.239-.735-.239-1.216 0-.459.092-.85.277-1.17.185-.319.433-.574.742-.765.31-.189.665-.327 1.065-.412.399-.085.814-.128 1.245-.128.289 0 .547.013.772.037.225.025.407.058.547.098v-.21c0-.38-.115-.685-.345-.915-.23-.229-.63-.345-1.2-.345-.38 0-.755.027-1.125.082-.37.056-.689.133-.96.233l-.285-1.801.487-.127c.195-.045.408-.085.638-.12.23-.035.473-.065.728-.09.254-.025.512-.038.772-.038zm.181 6.54l.63-.015c.199-.01.359-.024.479-.045v-1.695l-.405-.06c-.18-.021-.345-.03-.494-.03-.21 0-.408.013-.593.037-.186.025-.348.073-.487.143-.141.07-.25.165-.33.285-.08.12-.12.271-.12.45 0 .351.117.593.353.728.233.134.556.202.967.202zM68.07 6.198c-.2-.05-.435-.103-.705-.157-.27-.056-.56-.083-.869-.083-.141 0-.308.013-.503.038-.195.024-.343.052-.442.082v6.03h-2.235v-7.471c.4-.14.872-.271 1.418-.397.545-.124 1.152-.188 1.822-.188l.435.022.511.061.51.09c.17.035.314.078.435.128l-.377 1.845zM74.4 6.198c-.2-.05-.435-.103-.705-.157-.27-.056-.56-.083-.869-.083-.141 0-.308.013-.503.038-.195.024-.343.052-.442.082v6.03h-2.235v-7.471c.4-.14.872-.271 1.418-.397.545-.124 1.152-.188 1.822-.188l.435.022.511.061.51.09c.17.035.314.078.435.128l-.377 1.845zM83.204 8.148c0 .62-.09 1.188-.27 1.702-.18.516-.439.955-.779 1.32-.34.365-.748.647-1.223.848-.475.199-1.008.3-1.598.3-.581 0-1.108-.101-1.583-.3-.476-.2-.883-.482-1.223-.848-.34-.366-.605-.805-.795-1.32-.19-.515-.285-1.082-.285-1.702 0-.62.098-1.186.293-1.695.194-.51.465-.945.81-1.305.345-.36.755-.64 1.23-.84.475-.2.992-.301 1.552-.301.57 0 1.092.101 1.568.301.475.2.881.479 1.221.84.34.359.605.795.795 1.305.193.51.287 1.075.287 1.695zm-2.279 0c0-.69-.137-1.232-.412-1.628-.275-.395-.668-.593-1.178-.593-.51 0-.905.198-1.185.593-.28.396-.42.938-.42 1.628 0 .689.14 1.237.42 1.643.28.404.675.607 1.185.607s.902-.203 1.178-.607c.275-.405.412-.953.412-1.643zM88.079 12.258c-.65-.01-1.178-.08-1.582-.21-.404-.13-.725-.313-.961-.547-.234-.235-.395-.521-.479-.855-.086-.335-.129-.712-.129-1.133v-8.685l2.236-.36v8.596c0 .2.014.38.045.54.029.16.086.295.172.404.084.11.207.2.367.271.16.071.375.115.645.135l-.314 1.844zM92.819 12.258c-.65-.01-1.178-.08-1.582-.21-.404-.13-.725-.313-.961-.547-.234-.235-.395-.521-.479-.855-.086-.335-.129-.712-.129-1.133v-8.685l2.236-.36v8.596c0 .2.014.38.045.54.029.16.086.295.172.404.084.11.207.2.367.271.16.071.375.115.645.135l-.314 1.844zM101.79 8.148c0 .62-.09 1.188-.27 1.702-.18.516-.441.955-.781 1.32-.34.365-.746.647-1.223.848-.475.199-1.006.3-1.598.3-.58 0-1.107-.101-1.582-.3-.475-.2-.883-.482-1.223-.848-.34-.366-.605-.805-.795-1.32-.189-.515-.285-1.082-.285-1.702 0-.62.098-1.186.293-1.695.195-.509.465-.945.811-1.305.344-.36.754-.64 1.23-.84.475-.2.992-.301 1.551-.301.57 0 1.094.101 1.568.301.474.2.883.479 1.223.84.34.359.605.795.795 1.305.19.51.286 1.075.286 1.695zm-2.279 0c0-.69-.139-1.232-.414-1.628-.275-.395-.666-.593-1.178-.593-.51 0-.904.198-1.184.593-.281.396-.42.938-.42 1.628 0 .689.139 1.237.42 1.643.279.404.674.607 1.184.607.512 0 .902-.203 1.178-.607.275-.405.414-.953.414-1.643z"/></g><g fill="#3C3C3B" fill-rule="nonzero"><path d="M2.71 27.291c-.32.248-.58.479-.78.69-.2.211-.326.382-.378.51-.052.128-.078.252-.078.372 0 .104.021.208.061.312.04.104.126.2.258.288.132.088.326.132.582.132.336 0 .647-.048.936-.144.289-.096.521-.192.696-.288l.18 1.14c-.256.145-.567.265-.936.36-.369.095-.744.145-1.128.145-.664 0-1.181-.154-1.548-.463-.368-.308-.553-.718-.553-1.229 0-.272.038-.519.114-.738.076-.219.18-.42.313-.6.132-.18.285-.349.462-.504.176-.156.359-.311.552-.462l.408-.324c.248-.2.479-.422.695-.666.217-.244.328-.514.336-.811h1.284c-.008.265-.054.505-.138.721-.084.216-.192.414-.324.594s-.286.348-.462.504c-.176.156-.36.31-.552.461zm.984-3.156c-.256 0-.462-.069-.617-.21-.156-.14-.234-.35-.234-.63 0-.336.104-.598.313-.786.207-.188.443-.281.708-.281.256 0 .464.071.624.216.159.144.239.355.239.636 0 .16-.029.306-.09.438-.06.132-.138.244-.234.336-.096.092-.206.162-.329.21-.126.047-.252.071-.38.071zM9.682 20.104c1 0 1.766.195 2.298.588.532.392.798.952.798 1.68 0 .576-.11 1.066-.33 1.47-.22.404-.524.734-.913.99-.388.256-.853.442-1.393.559-.541.115-1.135.174-1.783.174h-.648l-.702 2.939h-1.515l1.956-8.195c.385-.08.769-.135 1.152-.162.384-.03.744-.043 1.08-.043zm-.143 1.271l-.433.012-.408.036-.672 2.868h.61c.334 0 .657-.027.968-.084.311-.056.586-.149.825-.282.239-.132.431-.312.573-.54.144-.228.216-.518.216-.869 0-.408-.15-.7-.45-.876-.3-.177-.71-.265-1.229-.265zM15.274 28.671c-.744 0-1.313-.22-1.704-.66-.392-.439-.588-1.02-.588-1.739 0-.464.072-.944.216-1.44.145-.496.364-.948.66-1.355.296-.408.668-.744 1.116-1.009.447-.264.976-.396 1.584-.396.744 0 1.312.218 1.704.654.392.436.588 1.014.588 1.733 0 .473-.07.956-.21 1.452-.141.496-.356.948-.648 1.356-.292.407-.664.743-1.116 1.008-.453.264-.986.396-1.602.396zm1.103-5.376c-.312 0-.59.09-.834.271-.244.18-.447.41-.611.689-.164.28-.29.586-.378.918-.089.332-.133.654-.133.967 0 .399.076.716.229.947.151.232.42.349.804.349.313 0 .59-.091.834-.271.244-.18.448-.408.612-.684.164-.276.29-.582.378-.918.088-.336.132-.656.132-.96 0-.4-.076-.719-.228-.954-.152-.236-.42-.354-.805-.354zM21.85 28.671c-.377 0-.7-.062-.973-.186-.271-.124-.494-.294-.666-.51-.172-.217-.298-.473-.378-.769-.08-.296-.12-.616-.12-.96 0-.536.095-1.054.283-1.554.188-.5.456-.94.805-1.32.349-.38.774-.684 1.279-.912.505-.228 1.077-.342 1.718-.342l.289.012.372.061.654-2.76 1.512-.24-1.644 6.804c-.04.185-.07.37-.09.558-.021.188-.03.366-.03.534 0 .216.02.433.06.648.04.215.104.439.192.672l-1.296.192c-.088-.168-.164-.372-.229-.612-.199.176-.443.334-.731.474-.288.14-.623.21-1.007.21zm2.313-5.304c-.151-.032-.336-.048-.551-.048-.368 0-.704.078-1.008.233-.304.156-.563.364-.779.624-.216.261-.381.559-.497.895-.116.336-.174.684-.174 1.044 0 .184.018.356.054.516.036.16.094.301.174.42.08.12.187.217.318.288.132.072.294.108.486.108.256 0 .481-.052.678-.156.196-.104.382-.248.558-.432.008-.168.026-.344.054-.528l.102-.54.585-2.424zM26.602 26.235c0-.536.086-1.054.258-1.554.172-.5.42-.944.744-1.332.324-.389.714-.698 1.17-.931.456-.231.968-.348 1.536-.348.607 0 1.08.156 1.416.468.336.313.504.712.504 1.2 0 .504-.124.912-.372 1.224-.248.313-.57.557-.966.732-.396.176-.844.296-1.344.359-.5.064-1.007.104-1.519.12l-.012.049v.119c0 .729.46 1.093 1.38 1.093.544 0 1.088-.112 1.632-.336l.12 1.176c-.192.088-.464.176-.815.264-.353.088-.753.132-1.2.132-.448 0-.832-.063-1.152-.191-.32-.128-.582-.305-.786-.528-.204-.223-.354-.481-.45-.774-.096-.292-.144-.606-.144-.942zm3.492-2.976c-.24 0-.468.049-.685.145-.216.096-.407.228-.575.396-.169.168-.314.366-.438.595-.124.228-.214.474-.27.737.96-.031 1.657-.147 2.094-.348.436-.2.653-.5.653-.9 0-.159-.058-.304-.174-.432-.116-.128-.317-.193-.605-.193zm1.164-4.26l.779.984-2.268 1.523-.588-.72 2.077-1.787zM34.031 28.503h-1.452l1.512-6.275h1.452l-1.512 6.275zm1.08-7.224c-.217 0-.404-.064-.564-.192-.16-.128-.24-.319-.24-.576 0-.296.103-.54.307-.731.203-.192.438-.288.701-.288.217 0 .406.066.57.198.164.132.246.326.246.582 0 .296-.104.538-.313.726-.208.188-.443.281-.707.281zM37.655 27.483c.384 0 .688-.063.911-.187.225-.124.336-.313.336-.569 0-.208-.071-.374-.216-.498-.144-.124-.396-.271-.756-.438-.191-.088-.37-.18-.534-.275-.164-.097-.306-.208-.426-.337-.12-.127-.216-.277-.288-.449-.072-.172-.107-.378-.107-.618 0-.624.228-1.12.684-1.488.456-.368 1.116-.552 1.98-.552.399 0 .758.042 1.073.126.316.084.554.17.714.258l-.516 1.128c-.136-.08-.332-.157-.588-.233-.256-.076-.524-.114-.804-.114-.137 0-.271.012-.402.036-.132.023-.25.063-.354.12-.104.056-.19.134-.259.233-.067.101-.102.223-.102.366 0 .185.074.334.222.45.148.116.362.238.643.366.264.119.487.235.672.348.184.112.336.238.456.378s.208.296.264.468c.056.172.084.378.084.618 0 .296-.06.57-.18.822s-.294.468-.522.647c-.228.181-.51.322-.846.427-.336.104-.72.155-1.152.155-.296 0-.562-.02-.798-.06-.236-.04-.442-.086-.618-.138-.176-.053-.324-.106-.443-.162l-.276-.145.516-1.14.246.126.372.149c.14.049.296.091.468.126.171.038.353.056.546.056zM45.382 28.503h-1.452l1.512-6.275h1.452l-1.512 6.275zm1.08-7.224c-.217 0-.404-.064-.564-.192-.16-.128-.24-.319-.24-.576 0-.296.103-.54.307-.731.203-.192.438-.288.701-.288.217 0 .406.066.57.198.164.132.246.326.246.582 0 .296-.104.538-.313.726-.208.188-.443.281-.707.281zM51.837 23.511c-.16-.056-.333-.1-.518-.132-.185-.031-.401-.048-.649-.048-.137 0-.281.01-.434.03-.152.02-.281.046-.386.078l-1.205 5.063h-1.452l1.44-5.987c.336-.112.699-.211 1.092-.295.392-.084.815-.126 1.271-.126l.324.019.354.042.323.06.259.084-.419 1.212zM56.168 22.491c.319-.096.68-.187 1.08-.271.399-.084.84-.126 1.319-.126.36 0 .662.053.906.156.244.104.45.252.618.444.231-.136.514-.271.846-.402.332-.131.71-.198 1.134-.198.368 0 .68.053.937.156.256.104.464.248.624.433.159.184.275.401.348.653.073.252.108.526.108.822 0 .328-.044.676-.133 1.044l-.792 3.3h-1.45l.742-3.144.114-.498c.036-.18.055-.362.055-.546 0-.128-.015-.254-.042-.378-.028-.124-.078-.23-.15-.318s-.17-.16-.294-.216c-.124-.056-.282-.084-.475-.084-.208 0-.412.04-.611.12-.2.08-.368.164-.504.252.031.151.048.315.048.492 0 .16-.012.328-.036.504-.024.176-.056.348-.096.516l-.793 3.3h-1.451l.744-3.144.113-.498c.036-.188.055-.374.055-.559 0-.264-.063-.493-.187-.689-.124-.196-.357-.294-.702-.294-.16 0-.312.01-.456.03l-.396.077-1.203 5.076h-1.461l1.441-6.01zM70.316 26.067c-.024.088-.049.231-.072.432-.024.2-.036.389-.036.564 0 .231.02.458.06.678.04.22.104.442.192.666l-1.296.192c-.096-.192-.172-.396-.228-.612-.2.176-.446.334-.738.474-.292.14-.622.21-.99.21-.376 0-.698-.062-.966-.186-.269-.124-.486-.296-.654-.517-.168-.22-.292-.478-.372-.773-.08-.295-.12-.616-.12-.96 0-.584.104-1.128.313-1.632.209-.504.498-.94.87-1.309.372-.367.813-.657 1.326-.87.512-.212 1.071-.317 1.68-.317.312 0 .626.025.941.078.316.052.635.149.954.294l-.864 3.588zm-.789-2.712c-.152-.032-.324-.048-.517-.048-.36 0-.693.077-.997.233-.305.156-.567.364-.787.624-.22.26-.391.559-.511.895-.12.336-.18.688-.18 1.056 0 .184.016.356.048.516.032.16.086.301.162.42.076.12.178.217.306.288.128.072.292.108.492.108.256 0 .482-.054.678-.162.196-.108.378-.254.546-.438.009-.208.026-.404.055-.589.027-.184.065-.367.114-.552l.591-2.351zm.597-4.356l.78.984-2.269 1.523-.588-.72 2.077-1.787zM73.34 27.483c.384 0 .688-.063.911-.187.225-.124.336-.313.336-.569 0-.208-.071-.374-.216-.498-.144-.124-.396-.271-.756-.438-.191-.088-.37-.18-.534-.275-.164-.097-.306-.208-.426-.337-.12-.127-.216-.277-.288-.449-.072-.172-.107-.378-.107-.618 0-.624.228-1.12.684-1.488.456-.368 1.116-.552 1.98-.552.399 0 .758.042 1.073.126.316.084.554.17.714.258l-.516 1.128c-.136-.08-.332-.157-.588-.233-.256-.076-.524-.114-.804-.114-.137 0-.271.012-.402.036-.132.023-.25.063-.354.12-.104.056-.19.134-.259.233-.067.101-.102.223-.102.366 0 .185.074.334.222.45.148.116.362.238.643.366.264.119.487.235.672.348.184.112.336.238.456.378s.208.296.264.468c.056.172.084.378.084.618 0 .296-.06.57-.18.822s-.294.468-.522.647c-.228.181-.51.322-.846.427-.336.104-.72.155-1.152.155-.296 0-.562-.02-.798-.06-.236-.04-.442-.086-.618-.138-.176-.053-.324-.106-.443-.162l-.276-.145.516-1.14.246.126.372.149c.14.049.296.091.468.126.171.038.354.056.546.056zM82.028 28.623c-.377-.008-.695-.056-.955-.144s-.469-.208-.623-.36c-.156-.151-.27-.332-.336-.54-.068-.208-.104-.436-.104-.684 0-.256.031-.526.09-.811.061-.283.127-.565.199-.846l1.393-5.808 1.512-.24c-.25 1.048-.5 2.09-.75 3.126s-.504 2.078-.762 3.126l-.125.498c-.045.164-.068.326-.068.485l.006.378c.004.116.037.217.096.301.061.084.15.154.271.21.119.056.275.092.467.107l-.311 1.202zM83.384 26.235c0-.536.086-1.054.258-1.554.172-.5.42-.944.744-1.332.324-.389.715-.698 1.17-.931.457-.231.969-.348 1.537-.348.607 0 1.08.156 1.416.468.336.313.504.712.504 1.2 0 .504-.125.912-.373 1.224-.248.313-.57.557-.965.732-.396.176-.844.296-1.344.359-.5.064-1.008.104-1.52.12l-.012.049v.119c0 .729.461 1.093 1.381 1.093.543 0 1.088-.112 1.631-.336l.121 1.176c-.193.088-.465.176-.816.264-.351.088-.752.132-1.199.132-.449 0-.832-.063-1.152-.191-.32-.128-.582-.305-.787-.528-.203-.224-.354-.481-.449-.774-.096-.292-.145-.606-.145-.942zm3.492-2.976c-.24 0-.467.049-.684.145-.217.096-.408.228-.576.396-.168.168-.314.366-.438.595-.125.228-.215.474-.27.737.959-.031 1.656-.147 2.094-.348.436-.2.652-.5.652-.9 0-.159-.057-.304-.174-.432-.114-.129-.315-.193-.604-.193zM90.933 28.275c-.104.432-.227.804-.365 1.116-.141.312-.313.567-.518.768-.203.2-.443.348-.719.444-.277.096-.607.144-.99.144-.184 0-.375-.022-.57-.065-.195-.045-.361-.099-.498-.162l.359-1.164.33.107c.123.032.258.048.4.048.326 0 .574-.113.742-.342.166-.228.295-.534.381-.918l1.447-6.023h1.451l-1.45 6.047zm1.031-6.996c-.215 0-.404-.064-.563-.192-.16-.128-.24-.319-.24-.576 0-.296.102-.54.305-.731.205-.192.439-.288.703-.288.215 0 .406.066.57.198.164.132.246.326.246.582 0 .296-.105.538-.313.726-.208.188-.443.281-.708.281zM95.265 28.671c-.744 0-1.313-.22-1.705-.66-.391-.439-.588-1.02-.588-1.739 0-.464.072-.944.217-1.44.145-.496.363-.948.66-1.355.295-.408.668-.744 1.115-1.009.447-.264.977-.396 1.584-.396.744 0 1.313.218 1.705.654.391.436.588 1.014.588 1.733 0 .473-.07.956-.211 1.452s-.355.948-.648 1.356c-.291.407-.664.743-1.115 1.008-.454.264-.987.396-1.602.396zm1.103-5.376c-.313 0-.59.09-.834.271-.244.18-.447.41-.611.689-.164.28-.291.586-.379.918-.088.332-.133.654-.133.967 0 .399.076.716.229.947.152.232.42.349.805.349.313 0 .59-.091.834-.271.244-.18.447-.408.611-.684.164-.276.291-.582.379-.918.088-.336.131-.656.131-.96 0-.4-.076-.719-.227-.954-.152-.236-.42-.354-.805-.354zM101.253 27.483c.383 0 .688-.063.91-.187.225-.124.336-.313.336-.569 0-.208-.07-.374-.215-.498s-.396-.271-.756-.438c-.191-.088-.371-.18-.535-.275-.164-.097-.305-.208-.426-.337-.119-.127-.215-.277-.287-.449-.072-.172-.107-.378-.107-.618 0-.624.227-1.12.684-1.488.455-.368 1.115-.552 1.98-.552.398 0 .758.042 1.072.126.316.084.555.17.715.258l-.516 1.128c-.137-.08-.332-.157-.588-.233-.256-.076-.525-.114-.805-.114-.137 0-.27.012-.402.036-.131.023-.25.063-.354.12-.104.056-.189.134-.258.233-.068.101-.102.223-.102.366 0 .185.074.334.221.45.148.116.363.238.643.366.264.119.488.235.672.348.184.113.336.238.457.378.119.14.207.296.264.468.055.172.084.378.084.618 0 .296-.061.57-.18.822-.121.252-.295.468-.523.647-.227.181-.51.322-.846.427-.336.104-.719.155-1.152.155-.295 0-.561-.02-.797-.06-.236-.04-.443-.086-.619-.138-.176-.053-.324-.106-.443-.162l-.275-.145.516-1.14.246.126.371.149c.141.049.297.091.469.126.171.038.353.056.546.056zM106.22 26.751c.256 0 .465.072.625.216.158.145.238.356.238.637 0 .16-.029.306-.09.438-.059.132-.137.244-.232.336-.098.092-.207.162-.33.21-.125.048-.25.072-.379.072-.256 0-.463-.07-.617-.21-.156-.14-.234-.35-.234-.63 0-.336.104-.598.313-.786.206-.188.442-.283.706-.283zm1.045-3.191l.455-.36c.152-.12.289-.246.414-.378.123-.132.225-.272.301-.42.074-.148.113-.311.113-.486 0-.24-.08-.418-.24-.534-.16-.115-.379-.174-.66-.174-.336 0-.648.048-.936.145-.289.096-.52.191-.695.288l-.182-1.141c.256-.144.568-.264.938-.359.367-.097.744-.145 1.127-.145.664 0 1.18.156 1.549.468.367.313.551.732.551 1.261 0 .367-.07.688-.215.96-.145.271-.326.518-.547.737-.219.221-.455.42-.707.601-.252.18-.488.364-.709.552-.219.188-.406.386-.557.594-.152.208-.232.448-.24.72h-1.273c.008-.271.051-.514.127-.726.076-.212.18-.406.313-.582.131-.176.289-.346.473-.51.184-.166.383-.336.6-.511z"/></g></g></svg>
