<svg viewBox="0 0 104 31" xmlns="http://www.w3.org/2000/svg"><g fill="none"><path d="M88.824 15.76c-.229-.334-.158-.62.068-.946 1.77-2.529 2.146-2.778 5.141-3.364.373-.074.674.012.971.227.477.345.967.673 1.607 1.119-.26-1.224-.371-2.295-.822-3.287-.49-1.082-1.037-2.14-1.488-3.237-.406-.988.035-1.96.996-2.406.748-.348 1.047-.248 1.396.513.443.967.867 1.943 1.299 2.916.42.947.836 1.896 1.283 2.831-.109-.861-.527-1.615-.898-2.371-.623-1.267-.578-2.598-.469-3.927.068-.838 1.174-1.571 2.043-1.482.326.033.488.201.51.521.047.641.115 1.282.137 1.924.068 1.929.117 3.858.178 5.787.006.238-.023.491.188.746-.004-1.115.033-2.174.148-3.231.102-.924.572-1.488 1.434-1.649.605-.114.857.092.793.691-.27 2.53-.594 5.056-.82 7.589-.393 4.388-1.449 8.675-1.908 13.051-.057.533-.352.806-.879.808-2.352.005-4.703.002-7.057.002-.318 0-.57-.117-.744-.401-1.627-2.674-3.686-5.027-5.609-7.479-.373-.474-.451-.866-.234-1.413.383-.965.703-1.955 1.059-2.932.367-1.018.459-1.047 1.686-.604.848.829.893 1.827.574 2.881-.15.491-.045.798.439 1.001.795.337 1.566.73 2.369 1.049.906.359 3.111-.582 3.332-1.516.201-.851.334-1.759.203-2.643-.082-.544-.66-.77-1.012-1.138-.648-.679-1.955-.76-2.611-.085-1.014 1.037-2.045 1.428-3.303.455z" id="Shape" fill="#00A19A"/><g fill="#3C3C3B" fill-rule="nonzero"><g id="Shape"><path d="M.589 11.933v-10.395h6.96v1.965h-4.62v2.175h4.11v1.965h-4.11v4.29zM16.278 7.973c0 .62-.09 1.188-.27 1.703-.18.515-.44.955-.78 1.32-.34.365-.747.647-1.223.848-.475.2-1.007.3-1.598.3-.58 0-1.107-.1-1.582-.3-.476-.2-.883-.482-1.223-.848-.34-.365-.605-.805-.795-1.32-.19-.515-.285-1.083-.285-1.703 0-.62.098-1.185.293-1.695.194-.51.465-.945.81-1.305.345-.36.755-.64 1.23-.84.475-.2.992-.3 1.552-.3.57 0 1.093.1 1.568.3.475.2.882.48 1.222.84.34.36.605.795.795 1.305.191.51.286 1.075.286 1.695zm-2.279 0c0-.69-.138-1.232-.413-1.627-.275-.395-.667-.593-1.178-.593-.51 0-.904.198-1.185.593-.281.395-.42.938-.42 1.627 0 .689.14 1.237.42 1.643.28.405.675.607 1.185.607.511 0 .902-.203 1.178-.607.275-.406.413-.953.413-1.643zM22.757 6.022l-.705-.157c-.27-.055-.56-.083-.869-.083-.141 0-.308.013-.503.038s-.343.052-.442.083v6.03h-2.235v-7.47c.4-.14.872-.272 1.418-.397.545-.125 1.152-.188 1.822-.188l.435.022.511.06.51.09c.17.035.314.078.435.127l-.377 1.845zM24.257 2.078l2.235-.36v2.325h2.685v1.86h-2.685v2.775c0 .47.083.845.247 1.125.165.28.498.42.998.42.24 0 .487-.022.742-.067.255-.045.487-.107.697-.188l.315 1.74c-.27.11-.57.205-.9.285-.329.08-.734.12-1.215.12-.609 0-1.115-.083-1.515-.248-.4-.165-.72-.395-.96-.69-.24-.295-.407-.653-.503-1.073-.095-.42-.143-.885-.143-1.395v-6.629h.002zM33.528 3.833c.66 0 1.21.075 1.65.225.439.15.792.365 1.058.645.265.28.452.62.563 1.02.109.4.165.845.165 1.335v4.65c-.32.07-.766.153-1.335.248-.57.095-1.261.143-2.07.143-.51 0-.973-.045-1.388-.135-.415-.09-.772-.237-1.072-.442-.3-.205-.53-.472-.69-.802-.16-.33-.239-.735-.239-1.215 0-.459.092-.85.277-1.17.185-.32.433-.575.742-.765.31-.189.665-.327 1.065-.412.399-.085.814-.127 1.245-.127.289 0 .547.012.772.037.225.025.407.058.547.098v-.21c0-.38-.115-.685-.345-.915-.23-.23-.63-.345-1.2-.345-.38 0-.755.028-1.125.083-.37.055-.689.133-.96.233l-.285-1.8.487-.127c.195-.045.408-.085.638-.12.23-.035.473-.065.728-.09.255-.025.512-.042.772-.042zm.18 6.54l.63-.015c.199-.01.359-.024.479-.045v-1.695l-.405-.06c-.18-.02-.345-.03-.494-.03-.21 0-.408.012-.593.037-.186.025-.348.073-.487.143-.141.07-.25.165-.33.285-.08.12-.12.27-.12.45 0 .351.117.593.353.728.234.134.557.202.967.202zM42.138 12.083c-.65-.01-1.178-.08-1.583-.21-.404-.13-.725-.313-.96-.547-.234-.235-.395-.52-.479-.855-.084-.335-.128-.712-.128-1.133v-8.685l2.235-.36v8.595c0 .2.015.38.045.54.03.16.087.295.173.405.084.11.207.2.367.27s.375.115.645.135l-.315 1.845zM43.353 8.048c0-.7.107-1.313.322-1.838.216-.525.498-.962.848-1.313.351-.35.753-.615 1.208-.795.455-.18.922-.27 1.402-.27 1.12 0 2.005.343 2.655 1.028.649.685.975 1.692.975 3.022l-.015.427-.03.413h-5.07c.05.46.265.825.646 1.095.38.27.89.405 1.529.405.41 0 .813-.038 1.208-.112.395-.075.718-.167.968-.278l.3 1.815c-.12.06-.28.12-.48.18-.2.06-.422.112-.667.158-.245.045-.508.082-.788.112-.279.03-.56.045-.84.045-.71 0-1.327-.105-1.853-.315-.524-.21-.96-.498-1.305-.862-.345-.365-.6-.797-.765-1.298-.165-.5-.248-1.039-.248-1.619zm5.25-.856c-.01-.189-.042-.375-.098-.555-.055-.18-.14-.34-.255-.48-.115-.14-.26-.255-.435-.345-.175-.09-.393-.135-.652-.135-.25 0-.466.042-.646.127-.18.085-.33.198-.45.337-.12.14-.212.303-.277.487-.065.186-.112.373-.143.563h2.956v.001zM58.412 5.542l-.729.81c-.305.34-.633.715-.984 1.125-.352.41-.703.84-1.061 1.29-.355.45-.678.885-.969 1.305h3.818v1.86h-6.525v-1.32c.21-.36.462-.748.757-1.163.295-.415.606-.833.93-1.252.324-.419.646-.828.967-1.223.321-.395.615-.752.887-1.072h-3.361v-1.86h6.269v1.5h.001zM62.598 3.833c.66 0 1.211.075 1.65.225.439.15.793.365 1.059.645.265.28.452.62.563 1.02.109.4.165.845.165 1.335v4.65c-.32.07-.766.153-1.335.248-.57.095-1.262.143-2.07.143-.51 0-.973-.045-1.389-.135-.414-.09-.771-.237-1.072-.442-.299-.205-.529-.472-.689-.802-.16-.33-.24-.735-.24-1.215 0-.459.092-.85.277-1.17.186-.32.434-.575.742-.765.311-.189.666-.327 1.066-.412.398-.085.814-.127 1.244-.127.289 0 .547.012.773.037.225.025.406.058.547.098v-.21c0-.38-.115-.685-.346-.915-.231-.23-.629-.345-1.199-.345-.381 0-.756.028-1.125.083-.371.055-.689.133-.961.233l-.285-1.8.488-.127c.195-.044.408-.085.637-.12.23-.035.473-.065.729-.09.253-.03.511-.042.771-.042zm.181 6.54l.629-.015c.199-.01.359-.024.48-.045v-1.695l-.406-.06c-.18-.02-.344-.03-.494-.03-.209 0-.408.012-.592.037-.186.025-.348.073-.488.143-.141.07-.25.165-.33.285-.08.12-.119.27-.119.45 0 .351.117.593.352.728.234.134.558.202.968.202zM70.324 10.328c.409 0 .699-.04.869-.12.17-.08.256-.235.256-.465 0-.18-.11-.337-.33-.473-.221-.135-.556-.287-1.005-.458-.351-.13-.668-.265-.953-.405-.285-.14-.527-.308-.728-.502-.2-.195-.354-.428-.465-.698-.111-.27-.165-.595-.165-.975 0-.74.275-1.325.825-1.755.55-.43 1.305-.645 2.265-.645.48 0 .94.043 1.38.127.44.085.79.178 1.051.278l-.391 1.74c-.26-.09-.542-.17-.848-.24-.305-.07-.647-.105-1.027-.105-.7 0-1.05.195-1.05.585 0 .09.015.17.045.24.03.07.09.138.18.203.091.065.213.135.368.211.154.076.353.159.592.25.49.182.896.36 1.216.537.319.177.572.367.757.572.186.205.315.432.391.681.074.25.112.539.112.868 0 .778-.293 1.367-.878 1.766s-1.412.599-2.482.599c-.7 0-1.282-.06-1.747-.18-.465-.12-.788-.22-.968-.3l.375-1.815c.38.15.77.268 1.17.353.4.085.795.126 1.185.126z"/></g><g><path d="M1.118 28.328c.063-.264.138-.547.222-.846.084-.301.174-.606.271-.918.096-.313.196-.616.3-.912.104-.297.204-.568.3-.816h1.021c-.064.561-.137 1.118-.216 1.674-.08.557-.2 1.162-.36 1.818l-.528 2.208h-1.536l.526-2.208zm1.883-4.344c-.256 0-.462-.07-.617-.211-.156-.139-.234-.35-.234-.629 0-.336.105-.599.318-.787.212-.188.449-.281.714-.281.256 0 .462.072.618.216.155.144.233.356.233.636 0 .16-.03.307-.09.438s-.138.243-.234.336c-.096.092-.206.161-.33.21-.124.048-.25.072-.378.072zM6.529 27.271c.217 0 .431-.02.643-.06.212-.04.403-.108.576-.204.172-.096.31-.226.414-.39.104-.164.155-.37.155-.618 0-.184-.04-.342-.12-.475-.08-.131-.188-.25-.323-.354-.137-.104-.29-.201-.462-.294l-.546-.294c-.209-.104-.406-.223-.595-.354-.188-.133-.354-.283-.498-.451-.144-.168-.258-.363-.342-.588-.084-.223-.126-.487-.126-.791 0-.368.07-.707.21-1.015.14-.308.348-.573.624-.798.276-.224.616-.4 1.021-.527.403-.129.873-.192 1.409-.192.248 0 .486.021.715.06.228.041.441.09.642.15s.376.126.528.197c.151.072.271.141.359.205l-.66 1.151c-.168-.136-.401-.252-.701-.348-.301-.097-.631-.144-.99-.144-.216 0-.422.021-.618.065s-.368.112-.516.204c-.148.092-.265.212-.349.359-.084.148-.126.322-.126.522 0 .185.03.336.09.456.061.12.145.227.252.318.108.092.234.176.378.252l.469.258c.248.136.481.271.702.408.22.136.414.291.582.468.168.176.302.378.401.606.101.228.15.502.15.821 0 .448-.084.841-.252 1.177-.168.336-.404.613-.708.834-.305.219-.664.385-1.08.498-.416.111-.872.168-1.368.168-.328 0-.63-.025-.906-.072-.275-.049-.521-.108-.737-.18-.217-.072-.402-.148-.559-.229-.157-.081-.278-.152-.366-.217l.672-1.188.318.191c.132.072.282.139.45.199.168.06.352.109.552.149.2.04.412.067.636.067zM10.958 26.107c0-.535.086-1.053.258-1.553.172-.5.42-.945.744-1.332.324-.389.714-.699 1.17-.931.456-.232.968-.349 1.536-.349.607 0 1.08.156 1.416.469.336.313.504.712.504 1.199 0 .505-.124.912-.372 1.225-.248.313-.57.557-.966.732-.396.176-.844.296-1.344.359-.5.064-1.007.104-1.519.12l-.012.048v.12c0 .728.46 1.093 1.38 1.093.544 0 1.088-.113 1.632-.336l.12 1.176c-.192.088-.464.176-.815.264-.353.088-.753.132-1.2.132-.448 0-.832-.063-1.152-.192-.32-.127-.582-.304-.786-.527-.204-.225-.354-.482-.45-.774-.097-.292-.144-.607-.144-.943zm3.492-2.975c-.24 0-.468.048-.685.144-.216.097-.407.229-.575.396-.169.168-.314.366-.438.594-.124.229-.214.475-.27.738.96-.031 1.657-.148 2.094-.348.436-.2.653-.5.653-.9 0-.16-.058-.304-.174-.432-.116-.128-.317-.192-.605-.192zM18.709 29.408c.593 0 1.038-.137 1.338-.408.301-.271.502-.645.606-1.116l.036-.168c-.16.08-.353.154-.576.222-.224.068-.46.103-.708.103-.704 0-1.226-.19-1.566-.569-.34-.381-.51-.887-.51-1.519 0-.576.101-1.108.3-1.597.2-.487.482-.91.847-1.266.363-.355.802-.634 1.313-.834.512-.199 1.08-.3 1.704-.3.304 0 .63.034.979.103.348.067.661.178.941.33l-1.271 5.327c-.112.472-.254.89-.426 1.255-.173.363-.398.667-.679.911s-.626.431-1.038.558c-.412.129-.91.192-1.494.192-.424 0-.806-.046-1.146-.138-.34-.092-.638-.206-.894-.342l.516-1.176c.216.127.466.231.75.312.285.079.61.12.978.12zm1.054-2.545c.216 0 .438-.039.665-.119.227-.08.417-.18.568-.301l.774-3.203c-.185-.04-.364-.061-.54-.061-.368 0-.703.068-1.003.204-.3.136-.558.32-.774.552-.216.232-.384.502-.504.811-.12.309-.18.639-.18.99s.075.628.228.828c.152.2.408.299.766.299zM30.194 22.1l-.888 3.732c-.04.184-.07.368-.09.552-.021.185-.03.368-.03.552 0 .232.018.461.054.685.036.224.098.444.187.659l-1.296.193-.126-.295-.103-.33c-.2.16-.448.314-.744.463-.296.147-.64.221-1.032.221-.352 0-.651-.051-.899-.155-.248-.104-.45-.246-.606-.426-.155-.181-.268-.392-.336-.636-.067-.244-.102-.502-.102-.774 0-.353.048-.731.144-1.14l.792-3.301h1.452l-.783 3.264c-.102.417-.152.757-.152 1.021 0 .128.012.248.036.36.023.111.065.21.126.294.061.084.145.149.253.198.108.048.242.072.403.072.265 0 .501-.055.71-.162.209-.108.401-.254.578-.438.023-.344.08-.696.168-1.056l.833-3.553h1.451zM32.018 28.376h-1.452l1.512-6.276h1.452l-1.512 6.276zm1.08-7.224c-.217 0-.404-.064-.564-.192-.16-.128-.24-.319-.24-.576 0-.296.103-.54.307-.731.203-.192.438-.289.701-.289.217 0 .406.066.57.199.164.131.246.326.246.582 0 .295-.104.537-.313.726-.209.189-.443.281-.707.281zM38.473 23.384c-.16-.056-.333-.1-.518-.132-.185-.031-.401-.048-.649-.048-.137 0-.281.01-.434.03-.152.02-.281.046-.386.078l-1.205 5.063h-1.452l1.44-5.987c.336-.113.699-.211 1.092-.295.392-.084.815-.126 1.271-.126l.324.019.354.041.323.061.259.084-.419 1.212zM46.946 25.939c-.024.089-.049.232-.072.433-.024.2-.036.388-.036.563 0 .232.02.459.06.678.04.221.104.443.192.666l-1.296.193c-.096-.193-.172-.396-.228-.613-.2.177-.446.335-.738.475-.292.14-.622.21-.99.21-.376 0-.698-.062-.966-.187-.269-.123-.486-.295-.654-.516-.168-.22-.292-.478-.372-.773-.08-.297-.12-.616-.12-.961 0-.584.104-1.127.313-1.631.209-.504.498-.94.87-1.309.372-.367.813-.658 1.326-.87.512-.212 1.071-.317 1.68-.317.312 0 .626.025.941.078.316.051.635.149.954.293l-.864 3.588zm-.789-2.71c-.152-.032-.324-.049-.517-.049-.36 0-.693.078-.997.234-.305.156-.567.364-.787.624-.22.26-.391.558-.511.894-.12.336-.18.688-.18 1.057 0 .184.016.355.048.516.032.161.086.301.162.42.076.12.178.217.306.288.128.072.292.108.492.108.256 0 .482-.055.678-.162.196-.108.378-.254.546-.438.009-.209.026-.404.055-.589.027-.184.065-.368.114-.552l.591-2.351zM49.97 27.355c.384 0 .688-.062.911-.186.225-.124.336-.314.336-.57 0-.207-.071-.373-.216-.498-.144-.123-.396-.27-.756-.438-.191-.088-.37-.18-.534-.275-.164-.097-.306-.209-.426-.337-.12-.128-.216-.278-.288-.45-.072-.172-.107-.377-.107-.617 0-.625.228-1.12.684-1.488.456-.368 1.116-.553 1.98-.553.399 0 .758.043 1.073.127.316.084.554.17.714.258l-.516 1.128c-.136-.08-.332-.157-.588-.233-.256-.076-.524-.115-.804-.115-.137 0-.271.013-.402.037-.132.023-.25.063-.354.119-.104.057-.19.135-.259.234-.067.1-.102.223-.102.365 0 .186.074.335.222.451.148.115.362.238.643.365.264.12.487.236.672.348.184.113.336.238.456.379.12.14.208.296.264.468.056.172.084.378.084.618 0 .296-.06.57-.18.822s-.294.467-.522.647c-.228.181-.51.322-.846.427-.336.104-.72.155-1.152.155-.296 0-.562-.021-.798-.06-.236-.041-.442-.086-.618-.139-.176-.052-.324-.105-.443-.162l-.276-.144.516-1.14.246.125.372.15c.14.049.296.09.468.126.172.036.354.056.546.056zM54.854 28.376h-1.451l1.512-6.276h1.451l-1.512 6.276zm2.015-9.504l.781.983-2.27 1.524-.588-.72 2.077-1.787zM57.697 26.624c.256 0 .465.071.625.216.16.145.24.355.24.637 0 .16-.031.305-.092.438-.059.132-.137.244-.232.336-.098.092-.207.162-.33.21-.125.048-.25.071-.379.071-.256 0-.461-.069-.617-.209-.156-.141-.234-.35-.234-.631 0-.336.104-.598.313-.785.206-.188.443-.283.706-.283zm1.944-4.356c-.063.264-.137.547-.221.846-.084.301-.174.607-.27.918-.098.313-.197.617-.301.912-.104.297-.203.568-.301.816h-1.02c.064-.56.137-1.117.217-1.674.08-.556.199-1.162.359-1.818l.527-2.207h1.537l-.527 2.207z"/></g></g></g></svg>
