<svg xmlns="http://www.w3.org/2000/svg" viewBox="0 0 566.9 510.2"><defs><style>.cls-1,.cls-6{fill:#9ad1c4;}.cls-1,.cls-4,.cls-5,.cls-6,.cls-7{stroke:#fff;stroke-miterlimit:10;}.cls-2,.cls-4{fill:#5490cc;}.cls-3,.cls-5{fill:#4559a4;}.cls-4,.cls-5,.cls-6{stroke-width:3px;}.cls-7{fill:none;}.cls-8{font-size:12.04px;fill:#fff;font-family:Ubuntu-Medium, Ubuntu Medium;}</style></defs><title>Artboard 1</title><path class="cls-1" d="M229.47 39.06a14.46 14.46 0 0 1-5.5.36 11.37 11.37 0 0 1-4.77-1.76 12.78 12.78 0 0 1-3.76-3.84 19.45 19.45 0 0 1-2.44-5.89 17.33 17.33 0 0 1-.47-6.38 13.75 13.75 0 0 1 1.71-5.21 12.42 12.42 0 0 1 3.48-3.81 13.84 13.84 0 0 1 4.83-2.21 18 18 0 0 1 3.13-.53 21.87 21.87 0 0 1 2.52 0 11.93 11.93 0 0 1 1.8.21 7.48 7.48 0 0 1 1 .26l-.32 3.45a6 6 0 0 0-1.16-.26c-.49-.08-1.05-.14-1.66-.18a14.59 14.59 0 0 0-2 0 12.18 12.18 0 0 0-2.08.33 10.08 10.08 0 0 0-3.78 1.72 8.26 8.26 0 0 0-2.43 2.92 10.17 10.17 0 0 0-1 3.93 15.38 15.38 0 0 0 .48 4.75 16.93 16.93 0 0 0 1.7 4.33 10.06 10.06 0 0 0 2.58 3 8 8 0 0 0 3.43 1.53 9.75 9.75 0 0 0 4.24-.18 15 15 0 0 0 4.25-1.6 18.87 18.87 0 0 0 2.37-1.64l1.78 2.93a6.61 6.61 0 0 1-.86.74 17.51 17.51 0 0 1-1.64 1 24 24 0 0 1-2.38 1.09 23.32 23.32 0 0 1-3.05.94zM252 34.84a12.32 12.32 0 0 1-4.9-.18 9 9 0 0 1-3.64-1.85 9.63 9.63 0 0 1-2.46-3.23 15 15 0 0 1-1.24-4.28l-2.46-17.59 3.93-.55 2.42 17.14q.58 4.22 2.72 5.85a6.53 6.53 0 0 0 5.12 1.21 7.68 7.68 0 0 0 2.67-.85 5.53 5.53 0 0 0 1.92-1.74 6.59 6.59 0 0 0 1-2.68 12 12 0 0 0 0-3.68l-2.43-17.15 3.92-.56 2.49 17.6a14.73 14.73 0 0 1 0 4.45 9.37 9.37 0 0 1-1.45 3.77 9.23 9.23 0 0 1-3 2.8 12.21 12.21 0 0 1-4.61 1.52zM285.56 28.14l.16 3.43-17 .76-1.29-28.27 4-.18 1.12 24.85zM304.29 3.78l-.08 3.43-8.9-.21-.56 24.87-4-.09.56-24.87-8.9-.2.08-3.43zM317.5 34.24a12.57 12.57 0 0 1-4.68-1.44 9.06 9.06 0 0 1-3-2.74 9.49 9.49 0 0 1-1.5-3.75 15 15 0 0 1-.09-4.45l2.17-17.64 3.93.49-2.14 17.19c-.34 2.81 0 4.92 1.11 6.35a6.58 6.58 0 0 0 4.63 2.5 7.79 7.79 0 0 0 2.79-.13 5.41 5.41 0 0 0 2.28-1.18 6.56 6.56 0 0 0 1.68-2.32 12.27 12.27 0 0 0 .94-3.57l2.11-17.19 3.93.49-2.17 17.63a15 15 0 0 1-1.16 4.3 9.53 9.53 0 0 1-2.33 3.27 9.28 9.28 0 0 1-3.63 1.95 12.41 12.41 0 0 1-4.87.24zM350.41 27.66c.3.63.68 1.45 1.13 2.46s.9 2.12 1.35 3.33.87 2.46 1.29 3.75a34.54 34.54 0 0 1 1 3.71l-4.22-1c-.29-1.13-.63-2.28-1-3.46s-.78-2.31-1.2-3.4l-1.34-3.05s-.83-1.81-1.19-2.54c-.35-.05-.71-.12-1.06-.2l-1.1-.25-3.46-.81-2.5 10.8-3.86-.89 6.29-27.21a23.52 23.52 0 0 1 3.77.3c1.36.22 2.6.46 3.71.71q5.82 1.35 8.35 4.24a7.72 7.72 0 0 1 1.53 7.23 7.8 7.8 0 0 1-2.54 4.36 8.76 8.76 0 0 1-4.95 1.92zm-2.85-14.29c-1.65-.38-2.92-.63-3.81-.76l-2.4 10.39 2.74.64a32.72 32.72 0 0 0 3.63.63 8.49 8.49 0 0 0 2.86-.14 4.11 4.11 0 0 0 2.05-1.13 5.34 5.34 0 0 0 1.22-2.54 5.36 5.36 0 0 0 0-2.73 4.67 4.67 0 0 0-1.24-2 7.32 7.32 0 0 0-2.19-1.38 17.87 17.87 0 0 0-2.86-.98zM377.45 48.53c0-1.31-.05-2.59 0-3.84v-3.83l-12.11-4.22-4.81 6-3.89-1.36q3-3.7 5.62-6.84c1.74-2.09 3.41-4.06 5-5.92s3.19-3.63 4.72-5.3 3.1-3.31 4.7-4.92l3.43 1.2q.39 3.38.63 6.77c.16 2.26.29 4.63.4 7.09s.2 5 .26 7.76.11 5.67.16 8.86zm-.06-11.13q-.06-3.8-.18-7.35c-.08-2.38-.22-4.68-.42-6.92-1.58 1.62-3.13 3.33-4.67 5.14s-3.1 3.7-4.68 5.66z"/><path class="cls-2" d="M41.68 313.44c.53 3.95.19 7.07-1 9.39a7.75 7.75 0 0 1-6.28 4.08 9.2 9.2 0 0 1-4.26-.32 7.18 7.18 0 0 1-3.14-2.14 11.58 11.58 0 0 1-2.09-3.78 25.8 25.8 0 0 1-1.2-5.24l-.41-3.11-10.43 1.38-.52-3.93 27.65-3.68a21.47 21.47 0 0 1 1 3.63c.32 1.35.53 2.59.68 3.72zm-3.39.79c-.23-1.68-.44-3-.64-3.83l-11 1.47.4 2.95a22 22 0 0 0 .74 3.61 8.3 8.3 0 0 0 1.21 2.62 4.37 4.37 0 0 0 2 1.48 5.73 5.73 0 0 0 2.87.24 5.2 5.2 0 0 0 2.59-1 4.77 4.77 0 0 0 1.45-1.93 7.35 7.35 0 0 0 .54-2.61 17.41 17.41 0 0 0-.16-3zM16.29 335.94l27.58-6.36 3.88 16.84-3.3.76-3-13-8.19 1.9 2.66 11.54-3.23.74-2.69-11.52-9.52 2.16 3.22 14-3.3.76zM37.86 369.57c-.38.58-.88 1.33-1.51 2.25s-1.34 1.87-2.13 2.89-1.64 2-2.53 3.06a33.47 33.47 0 0 1-2.69 2.75l-1.38-4.1c.81-.84 1.62-1.74 2.42-2.68s1.56-1.88 2.28-2.81 1.36-1.82 2-2.7 1.11-1.65 1.54-2.34c-.14-.33-.26-.67-.38-1l-.36-1.06-1.12-3.39-10.5 3.5-1.26-3.75 26.46-8.84a22 22 0 0 1 1.71 3.37c.53 1.28 1 2.46 1.33 3.54q1.89 5.65.75 9.33a7.72 7.72 0 0 1-5.36 5.09 7.89 7.89 0 0 1-5.05.11 8.8 8.8 0 0 1-4.22-3.22zm10.69-9.9c-.53-1.6-1-2.82-1.34-3.64l-10.11 3.37.89 2.68a28.65 28.65 0 0 0 1.36 3.42 8.26 8.26 0 0 0 1.65 2.37 4 4 0 0 0 2 1.13 5.31 5.31 0 0 0 2.81-.29 5.22 5.22 0 0 0 2.32-1.42 4.58 4.58 0 0 0 1.07-2.1 7.27 7.27 0 0 0 0-2.6 17 17 0 0 0-.65-2.92zM36.58 390.8c1.66 3.79 3.8 5.11 6.39 4a4.28 4.28 0 0 0 1.81-1.4 5.2 5.2 0 0 0 .86-2 10 10 0 0 0 .2-2.43c0-.87-.07-1.77-.13-2.73a26.28 26.28 0 0 1-.08-3.18 10.23 10.23 0 0 1 .49-2.84 6.56 6.56 0 0 1 1.35-2.36 8 8 0 0 1 8.89-1.86 10.62 10.62 0 0 1 4.72 5.55 18.56 18.56 0 0 1 1.38 4.5 10.84 10.84 0 0 1 .14 3.31l-3.47.14a10.94 10.94 0 0 0-.07-2.75 13.74 13.74 0 0 0-1.12-3.75 8.65 8.65 0 0 0-1.08-1.84 5.44 5.44 0 0 0-1.36-1.28 3.74 3.74 0 0 0-1.61-.56 3.56 3.56 0 0 0-1.8.32 3.8 3.8 0 0 0-1.58 1.19 4.42 4.42 0 0 0-.74 1.71 11.11 11.11 0 0 0-.23 2.17c0 .79 0 1.65.07 2.58v3.68a11.15 11.15 0 0 1-.54 3.14 6.91 6.91 0 0 1-1.53 2.56 8.4 8.4 0 0 1-2.87 1.94 6.7 6.7 0 0 1-6.33-.18c-2-1.13-3.59-3.19-4.91-6.21a19.4 19.4 0 0 1-1-2.91 21 21 0 0 1-.52-2.52 14.06 14.06 0 0 1-.17-2v-1.38l3.47-.23a16.89 16.89 0 0 0 .07 3.1 14.46 14.46 0 0 0 1.3 4.52zM52.76 399.38a17.62 17.62 0 0 1 6.11-2.24 13.3 13.3 0 0 1 5.48.26 12.25 12.25 0 0 1 4.58 2.38 14.62 14.62 0 0 1 3.41 4.09 14.15 14.15 0 0 1 1.74 5 11.85 11.85 0 0 1-.32 5.09 13.2 13.2 0 0 1-2.57 4.83 19.58 19.58 0 0 1-11.19 6.32 13.41 13.41 0 0 1-5.47-.25 12 12 0 0 1-4.53-2.32 14.23 14.23 0 0 1-3.37-4 14.46 14.46 0 0 1-1.78-5 12.26 12.26 0 0 1 .28-5.15 13.51 13.51 0 0 1 2.57-4.85 17.85 17.85 0 0 1 5.06-4.16zm2.06 3.62a15.7 15.7 0 0 0-3.74 2.88 10.42 10.42 0 0 0-2.18 3.38 8.25 8.25 0 0 0-.52 3.68 9.36 9.36 0 0 0 1.25 3.79 9 9 0 0 0 2.61 3 8.15 8.15 0 0 0 3.42 1.42 10.42 10.42 0 0 0 4-.16 17 17 0 0 0 8.12-4.63 10.29 10.29 0 0 0 2.22-3.36 8.06 8.06 0 0 0 .52-3.66 9 9 0 0 0-1.23-3.77 9.12 9.12 0 0 0-2.62-3 8.2 8.2 0 0 0-3.43-1.44 10.41 10.41 0 0 0-4 .16 15.59 15.59 0 0 0-4.42 1.71zM69.81 452.07c.45-1.08 1-2.31 1.5-3.68s1.09-2.81 1.64-4.33 1.09-3.09 1.64-4.7 1-3.17 1.52-4.7.91-3 1.29-4.41.7-2.67.95-3.8l-17.77 13.14-2.3-3.12 22.72-16.83 1.87 2.53q-.51 2.76-1.39 6.13t-1.93 6.81c-.69 2.29-1.41 4.49-2.14 6.61s-1.43 4-2.07 5.52l16.85-12.46 2.31 3.13-22.73 16.82zM90.37 475.47c.59-1.18 1.18-2.31 1.77-3.42l1.8-3.38-8.71-9.42-7.06 3-2.79-3q4.4-1.86 8.18-3.39t7.22-2.86q3.45-1.32 6.66-2.46t6.46-2.13l2.46 2.67q-1.24 3.17-2.63 6.27t-3 6.45c-1.06 2.22-2.2 4.55-3.43 7s-2.56 5.06-4 7.89zm5.19-9.86c1.15-2.25 2.24-4.44 3.29-6.58s2-4.23 2.88-6.3c-2.15.69-4.32 1.47-6.54 2.35s-4.47 1.8-6.78 2.79zM104.69 485q4.64 4.14 7.46 1a4.28 4.28 0 0 0 1.07-2 5.19 5.19 0 0 0 0-2.18 10.43 10.43 0 0 0-.82-2.3q-.59-1.17-1.26-2.43a24.22 24.22 0 0 1-1.39-2.86 10 10 0 0 1-.74-2.79 6.69 6.69 0 0 1 .25-2.7 7.19 7.19 0 0 1 1.54-2.74 7.12 7.12 0 0 1 5.75-2.64 10.7 10.7 0 0 1 6.6 3.09 18.34 18.34 0 0 1 3.13 3.53 10.7 10.7 0 0 1 1.5 2.95l-3.09 1.56a11 11 0 0 0-1.22-2.47 13.46 13.46 0 0 0-2.6-3 8.46 8.46 0 0 0-1.75-1.23 5.35 5.35 0 0 0-1.77-.59 3.58 3.58 0 0 0-1.69.16 3.47 3.47 0 0 0-1.51 1 3.72 3.72 0 0 0-.94 1.73 4.5 4.5 0 0 0 0 1.86 11.57 11.57 0 0 0 .7 2.08c.32.72.7 1.49 1.13 2.32.59 1.18 1.1 2.29 1.54 3.34a10.6 10.6 0 0 1 .81 3.07 7 7 0 0 1-.32 3 8.63 8.63 0 0 1-1.81 2.95 6.67 6.67 0 0 1-5.83 2.46q-3.36-.31-7-3.61a19.27 19.27 0 0 1-2.15-2.22 21.92 21.92 0 0 1-1.52-2.06 13.76 13.76 0 0 1-1-1.75c-.24-.53-.42-.95-.53-1.27l3.06-1.66a16.56 16.56 0 0 0 1.34 2.79 14.73 14.73 0 0 0 3.06 3.61z"/><path class="cls-3" d="M435.47 479.3q4.74-3.6 8.67-3.74a7.72 7.72 0 0 1 6.64 3.44 9.16 9.16 0 0 1 1.84 3.86 7.29 7.29 0 0 1-.31 3.78 11.46 11.46 0 0 1-2.25 3.68 26.27 26.27 0 0 1-4 3.63l-2.51 1.91 6.36 8.35-3.16 2.4-16.89-22.2a22.9 22.9 0 0 1 2.64-2.7c1.08-.91 2.06-1.71 2.97-2.41zm2.36 2.57c-1.35 1-2.35 1.84-3 2.45l6.73 8.84 2.37-1.81a22.32 22.32 0 0 0 2.77-2.43 8.3 8.3 0 0 0 1.65-2.39 4.43 4.43 0 0 0 .33-2.43 5.74 5.74 0 0 0-1.22-2.61 5.19 5.19 0 0 0-2.14-1.77 4.74 4.74 0 0 0-2.39-.31 7.36 7.36 0 0 0-2.53.83 17.05 17.05 0 0 0-2.57 1.63zM469.74 472.12c.69.1 1.58.24 2.67.44s2.27.44 3.52.75 2.53.65 3.83 1a35.9 35.9 0 0 1 3.61 1.28l-3.17 2.95c-1.1-.39-2.25-.75-3.44-1.1s-2.36-.64-3.5-.9-2.22-.49-3.27-.68-2-.32-2.77-.43c-.24.27-.49.52-.76.77l-.83.77-2.6 2.41 7.54 8.11-2.91 2.7-19-20.43a22.56 22.56 0 0 1 2.36-3c.94-1 1.84-1.9 2.67-2.68q4.37-4.07 8.19-4.54a7.73 7.73 0 0 1 6.85 2.78 7.81 7.81 0 0 1 2.19 4.54 8.82 8.82 0 0 1-1.18 5.26zm-13.44-5.64c-1.23 1.15-2.15 2.06-2.75 2.73l7.26 7.81 2.06-1.92a28 28 0 0 0 2.55-2.65 8.26 8.26 0 0 0 1.49-2.45 4.16 4.16 0 0 0 .18-2.36 5.46 5.46 0 0 0-1.43-2.44 5.23 5.23 0 0 0-2.26-1.52 4.47 4.47 0 0 0-2.35-.1 7.23 7.23 0 0 0-2.38 1 17.85 17.85 0 0 0-2.37 1.9zM475.88 463.11a17.41 17.41 0 0 1-4.15-5 12.91 12.91 0 0 1-1.59-5.25 12.19 12.19 0 0 1 .7-5.11 14.51 14.51 0 0 1 2.72-4.58 14.13 14.13 0 0 1 4.08-3.31 12.23 12.23 0 0 1 4.91-1.4 13.43 13.43 0 0 1 5.42.81 17.74 17.74 0 0 1 5.56 3.37 17.41 17.41 0 0 1 4.15 5 13.44 13.44 0 0 1 1.61 5.24 12.25 12.25 0 0 1-.67 5.06 14 14 0 0 1-2.67 4.52 14.41 14.41 0 0 1-4.13 3.37 12.32 12.32 0 0 1-4.95 1.45 13.27 13.27 0 0 1-5.43-.8 17.56 17.56 0 0 1-5.56-3.37zm2.71-3.16a15.48 15.48 0 0 0 4 2.56 10.31 10.31 0 0 0 3.91.93 8.15 8.15 0 0 0 3.64-.75 9.23 9.23 0 0 0 3.15-2.43 9 9 0 0 0 1.93-3.46 8.21 8.21 0 0 0 .2-3.69 10.42 10.42 0 0 0-1.5-3.74 17 17 0 0 0-7.08-6.11 10.41 10.41 0 0 0-3.92-.93 8.22 8.22 0 0 0-3.63.73 9.94 9.94 0 0 0-5.08 5.9 8.13 8.13 0 0 0-.2 3.7 10.22 10.22 0 0 0 1.49 3.74 15.89 15.89 0 0 0 3.09 3.6zM516.23 435.85a14.67 14.67 0 0 1-3.88 3.93 11.53 11.53 0 0 1-4.74 1.85 12.88 12.88 0 0 1-5.36-.38 19.49 19.49 0 0 1-5.75-2.77 17.32 17.32 0 0 1-4.59-4.46 13.67 13.67 0 0 1-2.17-5 12.3 12.3 0 0 1 .06-5.16 13.86 13.86 0 0 1 2.2-4.86 17.66 17.66 0 0 1 2-2.47 18.42 18.42 0 0 1 1.86-1.71 12.17 12.17 0 0 1 1.49-1c.43-.24.73-.39.91-.47l2.05 2.79a5.78 5.78 0 0 0-1 .58c-.42.27-.88.6-1.36 1a15.81 15.81 0 0 0-1.48 1.32 12.36 12.36 0 0 0-1.34 1.63 10.18 10.18 0 0 0-1.64 3.78 8.36 8.36 0 0 0 .12 3.79 10.14 10.14 0 0 0 1.85 3.62 15.5 15.5 0 0 0 3.51 3.23 17.3 17.3 0 0 0 4.14 2.12 10.12 10.12 0 0 0 4 .55 7.94 7.94 0 0 0 3.57-1.14 9.74 9.74 0 0 0 3-3 15 15 0 0 0 2.09-4.06 18.71 18.71 0 0 0 .68-2.8l3.28 1a6 6 0 0 1-.16 1.13 13.35 13.35 0 0 1-.55 1.85 22.63 22.63 0 0 1-1 2.4 23.24 23.24 0 0 1-1.79 2.71zM523.7 423.05l-24.7-13.73 8.39-15.11 3 1.64-6.46 11.65 7.36 4.08 5.74-10.36 2.9 1.61-5.75 10.35 8.57 4.76 7-12.54 3 1.65zM535.5 394c1.68-3.78 1.24-6.24-1.35-7.4a4.38 4.38 0 0 0-2.26-.41 5.35 5.35 0 0 0-2.06.72 10.41 10.41 0 0 0-1.94 1.48c-.62.6-1.27 1.25-1.93 1.93a29.46 29.46 0 0 1-2.3 2.2 10.3 10.3 0 0 1-2.44 1.55 6.86 6.86 0 0 1-2.65.58 8 8 0 0 1-7.3-5.38 10.63 10.63 0 0 1 .94-7.23 18.46 18.46 0 0 1 2.41-4 10.48 10.48 0 0 1 2.36-2.33l2.43 2.47a10.87 10.87 0 0 0-2 1.91 13.62 13.62 0 0 0-2.07 3.39 9 9 0 0 0-.64 2 5.36 5.36 0 0 0 0 1.87 3.53 3.53 0 0 0 2.11 2.68 3.72 3.72 0 0 0 1.94.37 4.48 4.48 0 0 0 1.76-.59 11.56 11.56 0 0 0 1.77-1.3c.59-.52 1.21-1.12 1.87-1.78.94-.92 1.85-1.75 2.71-2.48a11.25 11.25 0 0 1 2.69-1.71 7.14 7.14 0 0 1 2.93-.59 8.6 8.6 0 0 1 3.36.83 6.67 6.67 0 0 1 4.11 4.81q.72 3.3-1.29 7.81a18.64 18.64 0 0 1-1.46 2.72 22.18 22.18 0 0 1-1.51 2.08 14.5 14.5 0 0 1-1.37 1.47l-1 .89-2.5-2.41a17.37 17.37 0 0 0 2.18-2.15 14.78 14.78 0 0 0 2.5-4zM531 376.27a17.68 17.68 0 0 1-5.75-3 13.09 13.09 0 0 1-3.49-4.24 12.12 12.12 0 0 1-1.31-5 14.62 14.62 0 0 1 .74-5.28 14.23 14.23 0 0 1 2.5-4.62 12.11 12.11 0 0 1 4-3.18 13.41 13.41 0 0 1 5.31-1.35 17.93 17.93 0 0 1 6.44 1 17.68 17.68 0 0 1 5.75 3 13.27 13.27 0 0 1 3.5 4.22 12 12 0 0 1 1.33 4.93 14.2 14.2 0 0 1-.72 5.2 14.45 14.45 0 0 1-2.53 4.69 12.23 12.23 0 0 1-4 3.25 13.3 13.3 0 0 1-5.32 1.35 17.72 17.72 0 0 1-6.45-.97zm1.3-4a15.76 15.76 0 0 0 4.65.83 10.25 10.25 0 0 0 4-.65 8.23 8.23 0 0 0 3.05-2.05 9.22 9.22 0 0 0 2-3.46 9.05 9.05 0 0 0 .45-3.93 8.12 8.12 0 0 0-1.25-3.48 10.35 10.35 0 0 0-2.81-2.88 17 17 0 0 0-8.89-2.91 10.31 10.31 0 0 0-4 .65 8.22 8.22 0 0 0-3.06 2.07 9.83 9.83 0 0 0-2.42 7.39 8 8 0 0 0 1.24 3.5 10.49 10.49 0 0 0 2.81 2.88 16 16 0 0 0 4.2 2.08zM553.12 340.88q1.32-6.08-2.83-7a4.19 4.19 0 0 0-2.29.12 5.24 5.24 0 0 0-1.87 1.12 10.32 10.32 0 0 0-1.6 1.84c-.49.72-1 1.48-1.5 2.29a24.51 24.51 0 0 1-1.81 2.61 10.11 10.11 0 0 1-2.07 2 6.9 6.9 0 0 1-2.47 1.11 7.41 7.41 0 0 1-3.13-.07 7.12 7.12 0 0 1-5.12-3.72 10.66 10.66 0 0 1-.55-7.26 18.68 18.68 0 0 1 1.54-4.46 10.48 10.48 0 0 1 1.84-2.75l2.88 1.92a11.36 11.36 0 0 0-1.57 2.28 13.86 13.86 0 0 0-1.33 3.74 8.36 8.36 0 0 0-.22 2.12 5.33 5.33 0 0 0 .36 1.84 3.69 3.69 0 0 0 1 1.4 3.6 3.6 0 0 0 1.65.8 3.83 3.83 0 0 0 2 0 4.5 4.5 0 0 0 1.61-.94 10.71 10.71 0 0 0 1.36-1.67q.71-.94 1.47-2.13c.74-1.09 1.45-2.08 2.15-3a10.64 10.64 0 0 1 2.29-2.22 7 7 0 0 1 2.74-1.18 8.4 8.4 0 0 1 3.46.13 6.69 6.69 0 0 1 5 3.87c.92 2.06 1 4.69.32 7.91a19.71 19.71 0 0 1-.88 3 24 24 0 0 1-1.05 2.34 15.27 15.27 0 0 1-1 1.71c-.34.47-.61.84-.84 1.1l-2.94-1.86a18 18 0 0 0 1.77-2.54 14.81 14.81 0 0 0 1.63-4.45z"/><path class="cls-4" d="M165.8 407.81l-24.22 26.59a214.77 214.77 0 0 1-68.36-130.52l35.57-4.79a178.89 178.89 0 0 0 57.01 108.72z"/><path class="cls-5" d="M497.14 321.1l-35.14-7.69a179.5 179.5 0 0 0-16.36-121.72l31.85-16.69a215.83 215.83 0 0 1 19.65 146.1zM497.14 321.1a216.89 216.89 0 0 1-78.81 124.52l-22-28.46a181.1 181.1 0 0 0 65.67-103.75zM396.36 417.16l22 28.46a215.82 215.82 0 0 1-140.46 44.79l1.47-35.91a179.44 179.44 0 0 0 116.99-37.34z"/><path class="cls-4" d="M279.34 454.5l-1.47 35.91a214.23 214.23 0 0 1-106.39-33.25 217.57 217.57 0 0 1-29.9-22.76l24.22-26.59a180.6 180.6 0 0 0 113.54 46.69zM108.79 299.09l-35.57 4.79a214.56 214.56 0 0 1 31.53-143.88l30.37 19.23a178.94 178.94 0 0 0-26.33 119.86z"/><path class="cls-6" d="M221.31 69.86l10.9 34.22a178.87 178.87 0 0 0-97.09 75.11l-30.37-19.19a214.69 214.69 0 0 1 116.56-90.14zM368.53 75.79l-13.66 33.28a178.85 178.85 0 0 0-122.66-5l-10.9-34.22a214.86 214.86 0 0 1 147.22 5.94zM477.49 175l-31.83 16.71a178.67 178.67 0 0 0-63-68.22 181.12 181.12 0 0 0-27.79-14.4l13.66-33.28a217.12 217.12 0 0 1 33.37 17.26 214.37 214.37 0 0 1 75.59 81.93z"/><circle class="cls-7" cx="286.7" cy="275.11" r="215.64" transform="translate(-110.56 283.3) rotate(-45)"/><text class="cls-8" transform="translate(187.29 450.83) rotate(28.55)">E</text><text class="cls-8" transform="translate(193.49 454.21) rotate(26.52)">q</text><text class="cls-8" transform="translate(200.05 457.47) rotate(24.46)">u</text><text class="cls-8" transform="translate(206.54 460.4) rotate(22.95)">i</text><text class="cls-8" transform="matrix(.93 .37 -.37 .93 209.71 461.77)">p</text><text class="cls-8" transform="matrix(.94 .33 -.33 .94 216.53 464.44)">o</text><text class="cls-8" transform="translate(223.45 466.85) rotate(17.46)">s</text><text class="cls-8" transform="translate(105.73 347.71) rotate(67.13)">S</text><text class="cls-8" transform="matrix(.42 .91 -.91 .42 108.32 353.85)">a</text><text class="cls-8" transform="translate(111.08 359.76) rotate(63.69)">l</text><text class="cls-8" transform="translate(112.7 363.08) rotate(62.11)">u</text><text class="cls-8" transform="matrix(.5 .87 -.87 .5 116.06 369.44)">d</text><text class="cls-8" transform="matrix(.54 .84 -.84 .54 121.23 378.22)">y</text><text class="cls-8" transform="matrix(.36 .93 -.93 .36 90.6 346.37)">b</text><text class="cls-8" transform="translate(93.23 353.15) rotate(67.54)">i</text><text class="cls-8" transform="translate(94.52 356.33) rotate(66.12)">e</text><text class="cls-8" transform="translate(97.36 362.74) rotate(64.18)">n</text><text class="cls-8" transform="translate(100.5 369.22) rotate(62.24)">e</text><text class="cls-8" transform="translate(103.77 375.39) rotate(60.52)">s</text><text class="cls-8" transform="matrix(.51 .86 -.86 .51 106.54 380.29)">t</text><text class="cls-8" transform="matrix(.54 .84 -.84 .54 109.17 384.7)">a</text><text class="cls-8" transform="translate(112.71 390.22) rotate(55.87)">r</text><text class="cls-8" transform="translate(93.75 260.7) rotate(-84.72)">L</text><text class="cls-8" transform="matrix(.12 -.99 .99 .12 94.35 254.41)">i</text><text class="cls-8" transform="translate(94.71 251.19) rotate(-81.78)">d</text><text class="cls-8" transform="translate(95.71 244.24) rotate(-79.75)">e</text><text class="cls-8" transform="translate(96.92 237.6) rotate(-78.06)">r</text><text class="cls-8" transform="translate(97.89 232.97) rotate(-76.43)">a</text><text class="cls-8" transform="matrix(.26 -.96 .96 .26 99.38 226.82)">z</text><text class="cls-8" transform="translate(100.8 221.57) rotate(-72.87)">g</text><text class="cls-8" transform="translate(102.84 214.95) rotate(-70.81)">o</text><text class="cls-8" transform="matrix(.68 -.73 .73 .68 142.82 145.71)">F</text><text class="cls-8" transform="translate(147.14 141.06) rotate(-45.02)">o</text><text class="cls-8" transform="translate(152.14 136.06) rotate(-42.96)">u</text><text class="cls-8" transform="translate(157.15 131.38) rotate(-40.93)">n</text><text class="cls-8" transform="translate(162.36 126.86) rotate(-38.88)">d</text><text class="cls-8" transform="translate(167.84 122.45) rotate(-36.92)">a</text><text class="cls-8" transform="translate(172.88 118.67) rotate(-35.27)">t</text><text class="cls-8" transform="matrix(.83 -.56 .56 .83 176.93 115.82)">i</text><text class="cls-8" transform="translate(179.58 113.99) rotate(-32.55)">o</text><text class="cls-8" transform="translate(185.53 110.2) rotate(-30.49)">n</text><text class="cls-8" transform="translate(191.5 106.69) rotate(-28.68)">s</text><text class="cls-8" transform="translate(265.21 89.72) rotate(-5.57)">d</text><text class="cls-8" transform="translate(272.19 89.04) rotate(-3.47)">e</text><text class="cls-8" transform="translate(281.68 88.55) rotate(-.82)">t</text><text class="cls-8" transform="translate(286.59 88.46) rotate(.91)">a</text><text class="cls-8" transform="translate(292.92 88.58) rotate(2.42)">l</text><text class="cls-8" transform="translate(296.35 88.7) rotate(3.99)">e</text><text class="cls-8" transform="matrix(.99 .11 -.11 .99 303.06 89.17)">n</text><text class="cls-8" transform="translate(309.96 89.92) rotate(7.94)">t</text><text class="cls-8" transform="matrix(.99 .17 -.17 .99 314.65 90.55)">o</text><text class="cls-8" transform="matrix(1 -.07 .07 1 268.48 75.66)">A</text><text class="cls-8" transform="matrix(1 -.04 .04 1 276.5 75.11)">t</text><text class="cls-8" transform="translate(281.42 74.91) rotate(-.87)">r</text><text class="cls-8" transform="matrix(1 .01 -.01 1 286.18 74.83)">a</text><text class="cls-8" transform="translate(292.49 74.91) rotate(2.42)">c</text><text class="cls-8" transform="translate(298.05 75.14) rotate(4.02)">c</text><text class="cls-8" transform="translate(303.61 75.55) rotate(5.28)">i</text><text class="cls-8" transform="matrix(.99 .12 -.12 .99 306.83 75.82)">รณ</text><text class="cls-8" transform="translate(313.83 76.65) rotate(8.77)">n</text><text class="cls-8" transform="matrix(.84 .54 -.54 .84 383.52 115.41)">M</text><text class="cls-8" transform="translate(392.28 121.11) rotate(35.37)">a</text><text class="cls-8" transform="translate(397.42 124.75) rotate(37.4)">n</text><text class="cls-8" transform="translate(402.9 128.94) rotate(39.43)">a</text><text class="cls-8" transform="matrix(.75 .66 -.66 .75 407.76 132.93)">g</text><text class="cls-8" transform="translate(412.93 137.49) rotate(43.58)">e</text><text class="cls-8" transform="matrix(.69 .72 -.72 .69 417.81 142.07)">m</text><text class="cls-8" transform="matrix(.66 .75 -.75 .66 424.87 149.48)">e</text><text class="cls-8" transform="matrix(.63 .78 -.78 .63 429.29 154.53)">n</text><text class="cls-8" transform="matrix(.61 .8 -.8 .61 433.65 159.92)">t</text><text class="cls-8" transform="matrix(.8 .6 -.6 .8 404.62 113.16)">C</text><text class="cls-8" transform="matrix(.78 .63 -.63 .78 410.62 117.7)">h</text><text class="cls-8" transform="translate(415.93 122.03) rotate(41.02)">a</text><text class="cls-8" transform="translate(420.7 126.16) rotate(42.91)">n</text><text class="cls-8" transform="matrix(.71 .71 -.71 .71 425.75 130.86)">g</text><text class="cls-8" transform="matrix(.68 .73 -.73 .68 430.65 135.74)">e</text><text class="cls-8" transform="translate(468.08 231.22) rotate(77.42)">h</text><text class="cls-8" transform="translate(469.58 237.91) rotate(79.53)">u</text><text class="cls-8" transform="translate(470.86 244.6) rotate(82.15)">m</text><text class="cls-8" transform="matrix(.09 1 -1 .09 472.22 254.75)">a</text><text class="cls-8" transform="translate(472.81 261.01) rotate(86.73)">n</text><text class="cls-8" transform="translate(473.2 267.88) rotate(88.88)">o</text><text class="cls-8" transform="translate(482.18 231.46) rotate(78.47)">C</text><text class="cls-8" transform="matrix(.17 .99 -.99 .17 483.68 238.83)">a</text><text class="cls-8" transform="translate(484.73 245.05) rotate(82.34)">p</text><text class="cls-8" transform="matrix(.11 .99 -.99 .11 485.65 252.05)">i</text><text class="cls-8" transform="translate(486.01 255.28) rotate(84.99)">t</text><text class="cls-8" transform="translate(486.45 260.18) rotate(86.6)">a</text><text class="cls-8" transform="translate(486.81 266.49) rotate(88.01)">l</text><text class="cls-8" transform="translate(435.65 411.3) rotate(-48.68)">G</text><text class="cls-8" transform="matrix(.63 -.78 .78 .63 441.19 404.98)">o</text><text class="cls-8" transform="translate(445.7 399.41) rotate(-52.85)">v</text><text class="cls-8" transform="translate(449.54 394.35) rotate(-54.74)">e</text><text class="cls-8" transform="translate(453.56 388.64) rotate(-56.45)">r</text><text class="cls-8" transform="translate(456.33 384.48) rotate(-58.19)">n</text><text class="cls-8" transform="translate(460.12 378.36) rotate(-60.16)">a</text><text class="cls-8" transform="matrix(.47 -.88 .88 .47 463.39 372.66)">n</text><text class="cls-8" transform="translate(466.73 366.31) rotate(-63.99)">c</text><text class="cls-8" transform="translate(469.26 361.11) rotate(-65.3)">i</text><text class="cls-8" transform="matrix(.4 -.92 .92 .4 470.71 358)">a</text><text class="cls-8" transform="translate(318.12 467.64) rotate(-10.36)">E</text><text class="cls-8" transform="translate(325.24 466.35) rotate(-12.64)">fi</text><text class="cls-8" transform="translate(333.35 464.51) rotate(-14.71)">c</text><text class="cls-8" transform="translate(338.95 463.02) rotate(-16.06)">i</text><text class="cls-8" transform="matrix(.95 -.3 .3 .95 342.27 462.09)">e</text><text class="cls-8" transform="matrix(.94 -.34 .34 .94 348.95 459.97)">n</text><text class="cls-8" transform="matrix(.93 -.37 .37 .93 355.71 457.54)">c</text><text class="cls-8" transform="translate(361.09 455.4) rotate(-22.9)">i</text><text class="cls-8" transform="translate(364.26 454.08) rotate(-24.36)">a</text><text class="cls-8" transform="translate(322.65 480.64) rotate(-10.82)">y</text><text class="cls-8" transform="translate(331.7 478.85) rotate(-13.36)">a</text><text class="cls-8" transform="matrix(.96 -.26 .26 .96 338.09 477.33)">g</text><text class="cls-8" transform="translate(344.98 475.43) rotate(-16.68)">i</text><text class="cls-8" transform="translate(348.23 474.46) rotate(-17.64)">l</text><text class="cls-8" transform="translate(351.72 473.34) rotate(-18.61)">i</text><text class="cls-8" transform="translate(354.98 472.27) rotate(-20.07)">d</text><text class="cls-8" transform="translate(361.85 469.75) rotate(-21.97)">a</text><text class="cls-8" transform="translate(367.93 467.31) rotate(-23.86)">d</text></svg>