<svg width="126" height="140" viewBox="0 0 126 140" xmlns="http://www.w3.org/2000/svg"><title>Leyenda_para_M3Q_REDUCED9</title><desc>Created with Sketch.</desc><g fill-rule="nonzero" stroke="#fff" stroke-width="3" opacity=".8" fill="none"><path d="M90.169 96.354l-16.922 41.398c-4.719-1.938-9.823-3.065-15.18-3.275-5.391-.211-10.572.551-15.389 2.08l-13.645-42.555c9.674-3.092 20.03-4.582 30.778-4.162 10.749.421 20.959 2.714 30.358 6.514z" id="Shape" fill="#A1A1A1"/><path d="M107.06 54.993l-16.891 41.361c-9.399-3.801-19.609-6.094-30.356-6.514-10.748-.42-21.104 1.07-30.778 4.162l-13.604-42.59c14.485-4.617 30.022-6.836 46.126-6.205 16.105.63 31.421 4.054 45.503 9.786z" id="Shape" fill="#7E7E7D"/><path d="M123.983 15.182l-.042.107-16.881 41.252c-14.082-5.732-29.398-9.156-45.503-9.785-16.104-.631-31.641 1.588-46.126 6.205l-13.613-42.445-.031-.111c19.337-6.143 40.055-9.123 61.516-8.285 21.459.839 41.916 5.427 60.68 13.062z" fill="#575756"/></g></svg>