<svg viewBox="0 0 204 226" xmlns="http://www.w3.org/2000/svg"><g fill-rule="nonzero" stroke="#fff" stroke-width="5" opacity=".8" fill="none"><path d="M146.093 156.002l-27.402 67.034c-7.641-3.138-15.907-4.962-24.58-5.305-8.729-.342-17.119.892-24.918 3.368l-22.095-68.905c15.665-5.006 32.434-7.42 49.837-6.739 17.406.682 33.939 4.395 49.158 10.547z" id="Shape" fill="#C8E5DD"/><path d="M173.443 89.03l-27.35 66.972c-15.22-6.154-31.752-9.867-49.154-10.547-17.404-.681-34.173 1.733-49.837 6.739l-22.027-68.962c23.454-7.476 48.612-11.069 74.689-10.047 26.076 1.019 50.877 6.563 73.679 15.845z" id="Shape" fill="#9BD2C5"/><path d="M200.845 24.566l-.068.174-27.334 66.796c-22.802-9.282-47.603-14.826-73.679-15.844-26.077-1.021-51.235 2.571-74.689 10.047l-22.042-68.729-.051-.179c31.311-9.948 64.858-14.772 99.609-13.416 34.746 1.36 67.871 8.789 98.254 21.151z" fill="#97B5AE"/></g></svg>
